<mxfile host="app.diagrams.net" modified="2024-05-19T13:42:53.754Z" agent="Mozilla/5.0 (Windows NT 10.0; Win64; x64) AppleWebKit/537.36 (KHTML, like Gecko) Chrome/124.0.0.0 Safari/537.36" etag="UN7kMhR0BV4wP8VDgRlx" version="24.4.4" type="device">
  <diagram id="C5RBs43oDa-KdzZeNtuy" name="Page-1">
    <mxGraphModel dx="6661" dy="3026" grid="1" gridSize="10" guides="1" tooltips="1" connect="1" arrows="1" fold="1" page="1" pageScale="1" pageWidth="827" pageHeight="1169" math="0" shadow="0">
      <root>
        <mxCell id="WIyWlLk6GJQsqaUBKTNV-0" />
        <mxCell id="WIyWlLk6GJQsqaUBKTNV-1" parent="WIyWlLk6GJQsqaUBKTNV-0" />
        <mxCell id="eqaIh_Kuwr5XpTDgUAO9-0" value="&amp;lt;&amp;lt;abstract&amp;gt;&amp;gt;&lt;div&gt;Show&lt;/div&gt;" style="swimlane;fontStyle=1;align=center;verticalAlign=top;childLayout=stackLayout;horizontal=1;startSize=40;horizontalStack=0;resizeParent=1;resizeParentMax=0;resizeLast=0;collapsible=1;marginBottom=0;whiteSpace=wrap;html=1;" parent="WIyWlLk6GJQsqaUBKTNV-1" vertex="1">
          <mxGeometry x="-490" y="251" width="190" height="300" as="geometry">
            <mxRectangle x="-520" y="90" width="110" height="40" as="alternateBounds" />
          </mxGeometry>
        </mxCell>
        <mxCell id="eqaIh_Kuwr5XpTDgUAO9-1" value="- name : string&lt;div&gt;- venue : string&lt;/div&gt;&lt;div&gt;- date : DateTime&lt;/div&gt;&lt;div&gt;- state : string&lt;/div&gt;&lt;div&gt;- showId : int&lt;/div&gt;&lt;div&gt;- rating : float&lt;/div&gt;" style="text;strokeColor=none;fillColor=none;align=left;verticalAlign=top;spacingLeft=4;spacingRight=4;overflow=hidden;rotatable=0;points=[[0,0.5],[1,0.5]];portConstraint=eastwest;whiteSpace=wrap;html=1;" parent="eqaIh_Kuwr5XpTDgUAO9-0" vertex="1">
          <mxGeometry y="40" width="190" height="90" as="geometry" />
        </mxCell>
        <mxCell id="eqaIh_Kuwr5XpTDgUAO9-2" value="" style="line;strokeWidth=1;fillColor=none;align=left;verticalAlign=middle;spacingTop=-1;spacingLeft=3;spacingRight=3;rotatable=0;labelPosition=right;points=[];portConstraint=eastwest;strokeColor=inherit;" parent="eqaIh_Kuwr5XpTDgUAO9-0" vertex="1">
          <mxGeometry y="130" width="190" height="8" as="geometry" />
        </mxCell>
        <mxCell id="eqaIh_Kuwr5XpTDgUAO9-3" value="+ displayInfo(showId : int) : string&amp;nbsp;&lt;div&gt;+ authenticateTicket(ta : TicketAuthentication) : void&lt;/div&gt;&lt;div&gt;+ match(matching : Matching) :void&lt;/div&gt;&lt;div&gt;&lt;div&gt;+ recommend (sr : ShowRecommendation) : void&lt;/div&gt;&lt;/div&gt;&lt;div&gt;+ findPath(pf : PathFinder) : void&lt;/div&gt;" style="text;strokeColor=none;fillColor=none;align=left;verticalAlign=top;spacingLeft=4;spacingRight=4;overflow=hidden;rotatable=0;points=[[0,0.5],[1,0.5]];portConstraint=eastwest;whiteSpace=wrap;html=1;" parent="eqaIh_Kuwr5XpTDgUAO9-0" vertex="1">
          <mxGeometry y="138" width="190" height="162" as="geometry" />
        </mxCell>
        <mxCell id="eqaIh_Kuwr5XpTDgUAO9-82" value="" style="edgeStyle=orthogonalEdgeStyle;rounded=0;orthogonalLoop=1;jettySize=auto;html=1;entryX=0.5;entryY=1;entryDx=0;entryDy=0;endArrow=none;endFill=0;exitX=0.5;exitY=0;exitDx=0;exitDy=0;" parent="WIyWlLk6GJQsqaUBKTNV-1" source="eqaIh_Kuwr5XpTDgUAO9-4" target="eqaIh_Kuwr5XpTDgUAO9-8" edge="1">
          <mxGeometry relative="1" as="geometry">
            <Array as="points" />
            <mxPoint x="-650" y="470" as="sourcePoint" />
          </mxGeometry>
        </mxCell>
        <mxCell id="eqaIh_Kuwr5XpTDgUAO9-4" value="TicketAuthentication" style="swimlane;fontStyle=1;align=center;verticalAlign=top;childLayout=stackLayout;horizontal=1;startSize=26;horizontalStack=0;resizeParent=1;resizeParentMax=0;resizeLast=0;collapsible=1;marginBottom=0;whiteSpace=wrap;html=1;" parent="WIyWlLk6GJQsqaUBKTNV-1" vertex="1">
          <mxGeometry x="-730" y="414" width="160" height="100" as="geometry" />
        </mxCell>
        <mxCell id="eqaIh_Kuwr5XpTDgUAO9-6" value="" style="line;strokeWidth=1;fillColor=none;align=left;verticalAlign=middle;spacingTop=-1;spacingLeft=3;spacingRight=3;rotatable=0;labelPosition=right;points=[];portConstraint=eastwest;strokeColor=inherit;" parent="eqaIh_Kuwr5XpTDgUAO9-4" vertex="1">
          <mxGeometry y="26" width="160" height="8" as="geometry" />
        </mxCell>
        <mxCell id="eqaIh_Kuwr5XpTDgUAO9-7" value="&lt;div&gt;+ selectPhoto() : void&lt;/div&gt;&lt;div&gt;+ takePhoto() : void&lt;/div&gt;&lt;div&gt;+ authenticateTicket() : boolean&lt;br&gt;&lt;/div&gt;" style="text;strokeColor=none;fillColor=none;align=left;verticalAlign=top;spacingLeft=4;spacingRight=4;overflow=hidden;rotatable=0;points=[[0,0.5],[1,0.5]];portConstraint=eastwest;whiteSpace=wrap;html=1;" parent="eqaIh_Kuwr5XpTDgUAO9-4" vertex="1">
          <mxGeometry y="34" width="160" height="66" as="geometry" />
        </mxCell>
        <mxCell id="eqaIh_Kuwr5XpTDgUAO9-8" value="Ticket" style="swimlane;fontStyle=1;align=center;verticalAlign=top;childLayout=stackLayout;horizontal=1;startSize=26;horizontalStack=0;resizeParent=1;resizeParentMax=0;resizeLast=0;collapsible=1;marginBottom=0;whiteSpace=wrap;html=1;" parent="WIyWlLk6GJQsqaUBKTNV-1" vertex="1">
          <mxGeometry x="-730" y="292" width="160" height="78" as="geometry" />
        </mxCell>
        <mxCell id="eqaIh_Kuwr5XpTDgUAO9-9" value="+ ticketNumber : int&lt;div&gt;+ isAuthenticated : boolean&lt;/div&gt;" style="text;strokeColor=none;fillColor=none;align=left;verticalAlign=top;spacingLeft=4;spacingRight=4;overflow=hidden;rotatable=0;points=[[0,0.5],[1,0.5]];portConstraint=eastwest;whiteSpace=wrap;html=1;" parent="eqaIh_Kuwr5XpTDgUAO9-8" vertex="1">
          <mxGeometry y="26" width="160" height="44" as="geometry" />
        </mxCell>
        <mxCell id="eqaIh_Kuwr5XpTDgUAO9-10" value="" style="line;strokeWidth=1;fillColor=none;align=left;verticalAlign=middle;spacingTop=-1;spacingLeft=3;spacingRight=3;rotatable=0;labelPosition=right;points=[];portConstraint=eastwest;strokeColor=inherit;" parent="eqaIh_Kuwr5XpTDgUAO9-8" vertex="1">
          <mxGeometry y="70" width="160" height="8" as="geometry" />
        </mxCell>
        <mxCell id="eqaIh_Kuwr5XpTDgUAO9-16" value="Play" style="swimlane;fontStyle=1;align=center;verticalAlign=top;childLayout=stackLayout;horizontal=1;startSize=26;horizontalStack=0;resizeParent=1;resizeParentMax=0;resizeLast=0;collapsible=1;marginBottom=0;whiteSpace=wrap;html=1;" parent="WIyWlLk6GJQsqaUBKTNV-1" vertex="1">
          <mxGeometry x="-740" y="-180" width="160" height="34" as="geometry" />
        </mxCell>
        <mxCell id="eqaIh_Kuwr5XpTDgUAO9-18" value="" style="line;strokeWidth=1;fillColor=none;align=left;verticalAlign=middle;spacingTop=-1;spacingLeft=3;spacingRight=3;rotatable=0;labelPosition=right;points=[];portConstraint=eastwest;strokeColor=inherit;" parent="eqaIh_Kuwr5XpTDgUAO9-16" vertex="1">
          <mxGeometry y="26" width="160" height="8" as="geometry" />
        </mxCell>
        <mxCell id="eqaIh_Kuwr5XpTDgUAO9-20" value="Musical&lt;span style=&quot;color: rgba(0, 0, 0, 0); font-family: monospace; font-size: 0px; font-weight: 400; text-align: start; text-wrap: nowrap;&quot;&gt;%3CmxGraphModel%3E%3Croot%3E%3CmxCell%20id%3D%220%22%2F%3E%3CmxCell%20id%3D%221%22%20parent%3D%220%22%2F%3E%3CmxCell%20id%3D%222%22%20value%3D%22Play%22%20style%3D%22swimlane%3BfontStyle%3D1%3Balign%3Dcenter%3BverticalAlign%3Dtop%3BchildLayout%3DstackLayout%3Bhorizontal%3D1%3BstartSize%3D26%3BhorizontalStack%3D0%3BresizeParent%3D1%3BresizeParentMax%3D0%3BresizeLast%3D0%3Bcollapsible%3D1%3BmarginBottom%3D0%3BwhiteSpace%3Dwrap%3Bhtml%3D1%3B%22%20vertex%3D%221%22%20parent%3D%221%22%3E%3CmxGeometry%20x%3D%22-760%22%20y%3D%22290%22%20width%3D%22160%22%20height%3D%2234%22%20as%3D%22geometry%22%2F%3E%3C%2FmxCell%3E%3CmxCell%20id%3D%223%22%20value%3D%22%22%20style%3D%22line%3BstrokeWidth%3D1%3BfillColor%3Dnone%3Balign%3Dleft%3BverticalAlign%3Dmiddle%3BspacingTop%3D-1%3BspacingLeft%3D3%3BspacingRight%3D3%3Brotatable%3D0%3BlabelPosition%3Dright%3Bpoints%3D%5B%5D%3BportConstraint%3Deastwest%3BstrokeColor%3Dinherit%3B%22%20vertex%3D%221%22%20parent%3D%222%22%3E%3CmxGeometry%20y%3D%2226%22%20width%3D%22160%22%20height%3D%228%22%20as%3D%22geometry%22%2F%3E%3C%2FmxCell%3E%3C%2Froot%3E%3C%2FmxGraphModel%3E&lt;/span&gt;" style="swimlane;fontStyle=1;align=center;verticalAlign=top;childLayout=stackLayout;horizontal=1;startSize=26;horizontalStack=0;resizeParent=1;resizeParentMax=0;resizeLast=0;collapsible=1;marginBottom=0;whiteSpace=wrap;html=1;" parent="WIyWlLk6GJQsqaUBKTNV-1" vertex="1">
          <mxGeometry x="-740" y="-126" width="160" height="34" as="geometry" />
        </mxCell>
        <mxCell id="eqaIh_Kuwr5XpTDgUAO9-21" value="" style="line;strokeWidth=1;fillColor=none;align=left;verticalAlign=middle;spacingTop=-1;spacingLeft=3;spacingRight=3;rotatable=0;labelPosition=right;points=[];portConstraint=eastwest;strokeColor=inherit;" parent="eqaIh_Kuwr5XpTDgUAO9-20" vertex="1">
          <mxGeometry y="26" width="160" height="8" as="geometry" />
        </mxCell>
        <mxCell id="eqaIh_Kuwr5XpTDgUAO9-22" value="Concert" style="swimlane;fontStyle=1;align=center;verticalAlign=top;childLayout=stackLayout;horizontal=1;startSize=26;horizontalStack=0;resizeParent=1;resizeParentMax=0;resizeLast=0;collapsible=1;marginBottom=0;whiteSpace=wrap;html=1;" parent="WIyWlLk6GJQsqaUBKTNV-1" vertex="1">
          <mxGeometry x="-740" y="-76" width="160" height="34" as="geometry" />
        </mxCell>
        <mxCell id="eqaIh_Kuwr5XpTDgUAO9-23" value="" style="line;strokeWidth=1;fillColor=none;align=left;verticalAlign=middle;spacingTop=-1;spacingLeft=3;spacingRight=3;rotatable=0;labelPosition=right;points=[];portConstraint=eastwest;strokeColor=inherit;" parent="eqaIh_Kuwr5XpTDgUAO9-22" vertex="1">
          <mxGeometry y="26" width="160" height="8" as="geometry" />
        </mxCell>
        <mxCell id="eqaIh_Kuwr5XpTDgUAO9-26" value="Opera" style="swimlane;fontStyle=1;align=center;verticalAlign=top;childLayout=stackLayout;horizontal=1;startSize=26;horizontalStack=0;resizeParent=1;resizeParentMax=0;resizeLast=0;collapsible=1;marginBottom=0;whiteSpace=wrap;html=1;" parent="WIyWlLk6GJQsqaUBKTNV-1" vertex="1">
          <mxGeometry x="-740" y="-26" width="160" height="34" as="geometry" />
        </mxCell>
        <mxCell id="eqaIh_Kuwr5XpTDgUAO9-27" value="" style="line;strokeWidth=1;fillColor=none;align=left;verticalAlign=middle;spacingTop=-1;spacingLeft=3;spacingRight=3;rotatable=0;labelPosition=right;points=[];portConstraint=eastwest;strokeColor=inherit;" parent="eqaIh_Kuwr5XpTDgUAO9-26" vertex="1">
          <mxGeometry y="26" width="160" height="8" as="geometry" />
        </mxCell>
        <mxCell id="eqaIh_Kuwr5XpTDgUAO9-24" value="Museum" style="swimlane;fontStyle=1;align=center;verticalAlign=top;childLayout=stackLayout;horizontal=1;startSize=26;horizontalStack=0;resizeParent=1;resizeParentMax=0;resizeLast=0;collapsible=1;marginBottom=0;whiteSpace=wrap;html=1;" parent="WIyWlLk6GJQsqaUBKTNV-1" vertex="1">
          <mxGeometry x="-740" y="24" width="160" height="34" as="geometry" />
        </mxCell>
        <mxCell id="eqaIh_Kuwr5XpTDgUAO9-25" value="" style="line;strokeWidth=1;fillColor=none;align=left;verticalAlign=middle;spacingTop=-1;spacingLeft=3;spacingRight=3;rotatable=0;labelPosition=right;points=[];portConstraint=eastwest;strokeColor=inherit;" parent="eqaIh_Kuwr5XpTDgUAO9-24" vertex="1">
          <mxGeometry y="26" width="160" height="8" as="geometry" />
        </mxCell>
        <mxCell id="eqaIh_Kuwr5XpTDgUAO9-30" value="Matching" style="swimlane;fontStyle=1;align=center;verticalAlign=top;childLayout=stackLayout;horizontal=1;startSize=26;horizontalStack=0;resizeParent=1;resizeParentMax=0;resizeLast=0;collapsible=1;marginBottom=0;whiteSpace=wrap;html=1;" parent="WIyWlLk6GJQsqaUBKTNV-1" vertex="1">
          <mxGeometry x="-240" y="414" width="160" height="110" as="geometry" />
        </mxCell>
        <mxCell id="eqaIh_Kuwr5XpTDgUAO9-32" value="" style="line;strokeWidth=1;fillColor=none;align=left;verticalAlign=middle;spacingTop=-1;spacingLeft=3;spacingRight=3;rotatable=0;labelPosition=right;points=[];portConstraint=eastwest;strokeColor=inherit;" parent="eqaIh_Kuwr5XpTDgUAO9-30" vertex="1">
          <mxGeometry y="26" width="160" height="8" as="geometry" />
        </mxCell>
        <mxCell id="eqaIh_Kuwr5XpTDgUAO9-33" value="+ requestMatching() : void&lt;div&gt;+ acceptMatching(&lt;span style=&quot;background-color: initial;&quot;&gt;) :Mate&lt;/span&gt;&lt;/div&gt;&lt;div&gt;+ rejectMatching(&lt;span style=&quot;background-color: initial;&quot;&gt;) : void&lt;/span&gt;&lt;/div&gt;&lt;div&gt;+ cancelMatching(&lt;span style=&quot;background-color: initial;&quot;&gt;) : void&lt;/span&gt;&lt;/div&gt;" style="text;strokeColor=none;fillColor=none;align=left;verticalAlign=top;spacingLeft=4;spacingRight=4;overflow=hidden;rotatable=0;points=[[0,0.5],[1,0.5]];portConstraint=eastwest;whiteSpace=wrap;html=1;" parent="eqaIh_Kuwr5XpTDgUAO9-30" vertex="1">
          <mxGeometry y="34" width="160" height="76" as="geometry" />
        </mxCell>
        <mxCell id="eqaIh_Kuwr5XpTDgUAO9-34" value="Mate" style="swimlane;fontStyle=1;align=center;verticalAlign=top;childLayout=stackLayout;horizontal=1;startSize=26;horizontalStack=0;resizeParent=1;resizeParentMax=0;resizeLast=0;collapsible=1;marginBottom=0;whiteSpace=wrap;html=1;" parent="WIyWlLk6GJQsqaUBKTNV-1" vertex="1">
          <mxGeometry y="450" width="160" height="114" as="geometry" />
        </mxCell>
        <mxCell id="eqaIh_Kuwr5XpTDgUAO9-35" value="- message :List&amp;lt;string&lt;span style=&quot;font-size: 10px;&quot;&gt;&amp;gt;&lt;/span&gt;&lt;div&gt;- user1 : User&lt;/div&gt;&lt;div&gt;- user2 : User&lt;/div&gt;" style="text;strokeColor=none;fillColor=none;align=left;verticalAlign=top;spacingLeft=4;spacingRight=4;overflow=hidden;rotatable=0;points=[[0,0.5],[1,0.5]];portConstraint=eastwest;whiteSpace=wrap;html=1;" parent="eqaIh_Kuwr5XpTDgUAO9-34" vertex="1">
          <mxGeometry y="26" width="160" height="54" as="geometry" />
        </mxCell>
        <mxCell id="eqaIh_Kuwr5XpTDgUAO9-36" value="" style="line;strokeWidth=1;fillColor=none;align=left;verticalAlign=middle;spacingTop=-1;spacingLeft=3;spacingRight=3;rotatable=0;labelPosition=right;points=[];portConstraint=eastwest;strokeColor=inherit;" parent="eqaIh_Kuwr5XpTDgUAO9-34" vertex="1">
          <mxGeometry y="80" width="160" height="8" as="geometry" />
        </mxCell>
        <mxCell id="eqaIh_Kuwr5XpTDgUAO9-37" value="+ chat() : void" style="text;strokeColor=none;fillColor=none;align=left;verticalAlign=top;spacingLeft=4;spacingRight=4;overflow=hidden;rotatable=0;points=[[0,0.5],[1,0.5]];portConstraint=eastwest;whiteSpace=wrap;html=1;" parent="eqaIh_Kuwr5XpTDgUAO9-34" vertex="1">
          <mxGeometry y="88" width="160" height="26" as="geometry" />
        </mxCell>
        <mxCell id="eqaIh_Kuwr5XpTDgUAO9-38" value="UserReview" style="swimlane;fontStyle=1;align=center;verticalAlign=top;childLayout=stackLayout;horizontal=1;startSize=26;horizontalStack=0;resizeParent=1;resizeParentMax=0;resizeLast=0;collapsible=1;marginBottom=0;whiteSpace=wrap;html=1;" parent="WIyWlLk6GJQsqaUBKTNV-1" vertex="1">
          <mxGeometry x="-40" y="656.5" width="220" height="130" as="geometry" />
        </mxCell>
        <mxCell id="eqaIh_Kuwr5XpTDgUAO9-40" value="" style="line;strokeWidth=1;fillColor=none;align=left;verticalAlign=middle;spacingTop=-1;spacingLeft=3;spacingRight=3;rotatable=0;labelPosition=right;points=[];portConstraint=eastwest;strokeColor=inherit;" parent="eqaIh_Kuwr5XpTDgUAO9-38" vertex="1">
          <mxGeometry y="26" width="220" height="8" as="geometry" />
        </mxCell>
        <mxCell id="eqaIh_Kuwr5XpTDgUAO9-41" value="&lt;div&gt;+ writeReview(user:User) : void&lt;/div&gt;&lt;div&gt;&lt;span style=&quot;background-color: initial;&quot;&gt;+ saveReview(&lt;/span&gt;user:User&lt;span style=&quot;background-color: initial;&quot;&gt;) : void&lt;/span&gt;&lt;/div&gt;&lt;div&gt;+ deleteReview(user:User&lt;span style=&quot;background-color: initial;&quot;&gt;) : void&lt;/span&gt;&lt;/div&gt;&lt;div&gt;&lt;span style=&quot;background-color: initial;&quot;&gt;+ displayReview(user:User&lt;/span&gt;&lt;span style=&quot;background-color: initial;&quot;&gt;) : void&lt;/span&gt;&lt;/div&gt;" style="text;strokeColor=none;fillColor=none;align=left;verticalAlign=top;spacingLeft=4;spacingRight=4;overflow=hidden;rotatable=0;points=[[0,0.5],[1,0.5]];portConstraint=eastwest;whiteSpace=wrap;html=1;" parent="eqaIh_Kuwr5XpTDgUAO9-38" vertex="1">
          <mxGeometry y="34" width="220" height="96" as="geometry" />
        </mxCell>
        <mxCell id="eqaIh_Kuwr5XpTDgUAO9-54" value="" style="endArrow=none;html=1;rounded=0;exitX=1;exitY=0;exitDx=0;exitDy=0;" parent="WIyWlLk6GJQsqaUBKTNV-1" edge="1">
          <mxGeometry width="50" height="50" relative="1" as="geometry">
            <mxPoint x="-580" y="-59.5" as="sourcePoint" />
            <mxPoint x="-510" y="-59" as="targetPoint" />
          </mxGeometry>
        </mxCell>
        <mxCell id="eqaIh_Kuwr5XpTDgUAO9-55" value="" style="endArrow=none;html=1;rounded=0;exitX=1;exitY=0;exitDx=0;exitDy=0;" parent="WIyWlLk6GJQsqaUBKTNV-1" edge="1">
          <mxGeometry width="50" height="50" relative="1" as="geometry">
            <mxPoint x="-580" y="-9.5" as="sourcePoint" />
            <mxPoint x="-510" y="-9" as="targetPoint" />
          </mxGeometry>
        </mxCell>
        <mxCell id="eqaIh_Kuwr5XpTDgUAO9-56" value="" style="endArrow=none;html=1;rounded=0;exitX=1;exitY=0;exitDx=0;exitDy=0;" parent="WIyWlLk6GJQsqaUBKTNV-1" edge="1">
          <mxGeometry width="50" height="50" relative="1" as="geometry">
            <mxPoint x="-580" y="-109.5" as="sourcePoint" />
            <mxPoint x="-510" y="-109" as="targetPoint" />
          </mxGeometry>
        </mxCell>
        <mxCell id="eqaIh_Kuwr5XpTDgUAO9-84" value="register" style="edgeStyle=orthogonalEdgeStyle;rounded=0;orthogonalLoop=1;jettySize=auto;html=1;entryX=1;entryY=0.5;entryDx=0;entryDy=0;endArrow=blockThin;endFill=1;endSize=12;exitX=-0.018;exitY=0.952;exitDx=0;exitDy=0;exitPerimeter=0;" parent="WIyWlLk6GJQsqaUBKTNV-1" source="k7wSuXpc-OqHTCkI8A_d-135" target="eqaIh_Kuwr5XpTDgUAO9-1" edge="1">
          <mxGeometry relative="1" as="geometry">
            <Array as="points">
              <mxPoint x="-280" y="275" />
              <mxPoint x="-280" y="336" />
            </Array>
            <mxPoint x="-180" y="336" as="sourcePoint" />
          </mxGeometry>
        </mxCell>
        <mxCell id="eqaIh_Kuwr5XpTDgUAO9-85" value="" style="edgeLabel;html=1;align=center;verticalAlign=middle;resizable=0;points=[];" parent="eqaIh_Kuwr5XpTDgUAO9-84" vertex="1" connectable="0">
          <mxGeometry x="-0.0794" y="1" relative="1" as="geometry">
            <mxPoint as="offset" />
          </mxGeometry>
        </mxCell>
        <mxCell id="eqaIh_Kuwr5XpTDgUAO9-69" value="MyShow" style="swimlane;fontStyle=1;align=center;verticalAlign=top;childLayout=stackLayout;horizontal=1;startSize=26;horizontalStack=0;resizeParent=1;resizeParentMax=0;resizeLast=0;collapsible=1;marginBottom=0;whiteSpace=wrap;html=1;" parent="WIyWlLk6GJQsqaUBKTNV-1" vertex="1">
          <mxGeometry x="-260" y="220" width="160" height="100" as="geometry" />
        </mxCell>
        <mxCell id="k7wSuXpc-OqHTCkI8A_d-135" value="- myShow : List&amp;lt;Show&amp;gt;" style="text;html=1;align=left;verticalAlign=middle;resizable=0;points=[];autosize=1;strokeColor=none;fillColor=none;" parent="eqaIh_Kuwr5XpTDgUAO9-69" vertex="1">
          <mxGeometry y="26" width="160" height="30" as="geometry" />
        </mxCell>
        <mxCell id="eqaIh_Kuwr5XpTDgUAO9-70" value="" style="line;strokeWidth=1;fillColor=none;align=left;verticalAlign=middle;spacingTop=-1;spacingLeft=3;spacingRight=3;rotatable=0;labelPosition=right;points=[];portConstraint=eastwest;strokeColor=inherit;" parent="eqaIh_Kuwr5XpTDgUAO9-69" vertex="1">
          <mxGeometry y="56" width="160" height="14" as="geometry" />
        </mxCell>
        <mxCell id="eqaIh_Kuwr5XpTDgUAO9-71" value="&lt;div&gt;+ diplayShowList() : void&lt;/div&gt;" style="text;strokeColor=none;fillColor=none;align=left;verticalAlign=top;spacingLeft=4;spacingRight=4;overflow=hidden;rotatable=0;points=[[0,0.5],[1,0.5]];portConstraint=eastwest;whiteSpace=wrap;html=1;" parent="eqaIh_Kuwr5XpTDgUAO9-69" vertex="1">
          <mxGeometry y="70" width="160" height="30" as="geometry" />
        </mxCell>
        <mxCell id="k7wSuXpc-OqHTCkI8A_d-2" style="edgeStyle=orthogonalEdgeStyle;rounded=0;orthogonalLoop=1;jettySize=auto;html=1;endArrow=blockThin;endFill=1;endSize=12;exitX=0;exitY=0.5;exitDx=0;exitDy=0;" parent="WIyWlLk6GJQsqaUBKTNV-1" source="k7wSuXpc-OqHTCkI8A_d-6" edge="1">
          <mxGeometry relative="1" as="geometry">
            <mxPoint x="284.69000000000005" y="280.99999999999955" as="targetPoint" />
            <Array as="points">
              <mxPoint x="390" y="281" />
            </Array>
            <mxPoint x="640" y="280.99999999999955" as="sourcePoint" />
          </mxGeometry>
        </mxCell>
        <mxCell id="k7wSuXpc-OqHTCkI8A_d-3" value="&lt;b&gt;&lt;/b&gt;" style="edgeLabel;html=1;align=center;verticalAlign=middle;resizable=0;points=[];" parent="k7wSuXpc-OqHTCkI8A_d-2" vertex="1" connectable="0">
          <mxGeometry x="0.0841" relative="1" as="geometry">
            <mxPoint as="offset" />
          </mxGeometry>
        </mxCell>
        <mxCell id="jgWhs5KkmwtUaRcZvf3S-9" value="register" style="edgeLabel;html=1;align=center;verticalAlign=middle;resizable=0;points=[];" parent="k7wSuXpc-OqHTCkI8A_d-2" vertex="1" connectable="0">
          <mxGeometry x="0.1378" y="1" relative="1" as="geometry">
            <mxPoint x="8" as="offset" />
          </mxGeometry>
        </mxCell>
        <mxCell id="k7wSuXpc-OqHTCkI8A_d-4" value="LoginController" style="swimlane;fontStyle=1;align=center;verticalAlign=top;childLayout=stackLayout;horizontal=1;startSize=26;horizontalStack=0;resizeParent=1;resizeLast=0;collapsible=1;marginBottom=0;rounded=0;shadow=0;strokeWidth=1;" parent="WIyWlLk6GJQsqaUBKTNV-1" vertex="1">
          <mxGeometry x="390" y="220" width="270" height="86" as="geometry">
            <mxRectangle x="230" y="140" width="160" height="26" as="alternateBounds" />
          </mxGeometry>
        </mxCell>
        <mxCell id="k7wSuXpc-OqHTCkI8A_d-5" value="" style="line;html=1;strokeWidth=1;align=left;verticalAlign=middle;spacingTop=-1;spacingLeft=3;spacingRight=3;rotatable=0;labelPosition=right;points=[];portConstraint=eastwest;" parent="k7wSuXpc-OqHTCkI8A_d-4" vertex="1">
          <mxGeometry y="26" width="270" height="8" as="geometry" />
        </mxCell>
        <mxCell id="k7wSuXpc-OqHTCkI8A_d-6" value="+ authenticate(ua :UserAuthentication): boolean&#xa;+ findPW(uid : userId): void&#xa;+ resetPW(): string" style="text;align=left;verticalAlign=top;spacingLeft=4;spacingRight=4;overflow=hidden;rotatable=0;points=[[0,0.5],[1,0.5]];portConstraint=eastwest;" parent="k7wSuXpc-OqHTCkI8A_d-4" vertex="1">
          <mxGeometry y="34" width="270" height="46" as="geometry" />
        </mxCell>
        <mxCell id="k7wSuXpc-OqHTCkI8A_d-7" style="edgeStyle=orthogonalEdgeStyle;rounded=0;orthogonalLoop=1;jettySize=auto;html=1;exitX=0.498;exitY=1.005;exitDx=0;exitDy=0;exitPerimeter=0;endArrow=blockThin;endFill=1;endSize=1;" parent="WIyWlLk6GJQsqaUBKTNV-1" source="k7wSuXpc-OqHTCkI8A_d-11" edge="1">
          <mxGeometry relative="1" as="geometry">
            <Array as="points">
              <mxPoint x="635" y="-10" />
              <mxPoint x="634" y="-10" />
              <mxPoint x="634" y="20" />
              <mxPoint x="510" y="20" />
              <mxPoint x="510" y="60" />
            </Array>
            <mxPoint x="510" y="70" as="targetPoint" />
            <mxPoint x="633.6499999999996" y="-26.000000000000128" as="sourcePoint" />
          </mxGeometry>
        </mxCell>
        <mxCell id="k7wSuXpc-OqHTCkI8A_d-8" value="&lt;b&gt;&lt;/b&gt;" style="edgeLabel;html=1;align=center;verticalAlign=middle;resizable=0;points=[];" parent="k7wSuXpc-OqHTCkI8A_d-7" vertex="1" connectable="0">
          <mxGeometry x="-0.3649" y="3" relative="1" as="geometry">
            <mxPoint as="offset" />
          </mxGeometry>
        </mxCell>
        <mxCell id="k7wSuXpc-OqHTCkI8A_d-9" value="KakaoVerification" style="swimlane;fontStyle=1;align=center;verticalAlign=top;childLayout=stackLayout;horizontal=1;startSize=26;horizontalStack=0;resizeParent=1;resizeLast=0;collapsible=1;marginBottom=0;rounded=0;shadow=0;strokeWidth=1;" parent="WIyWlLk6GJQsqaUBKTNV-1" vertex="1">
          <mxGeometry x="500" y="-89.5" width="270" height="74" as="geometry">
            <mxRectangle x="340" y="380" width="170" height="26" as="alternateBounds" />
          </mxGeometry>
        </mxCell>
        <mxCell id="k7wSuXpc-OqHTCkI8A_d-10" value="" style="line;html=1;strokeWidth=1;align=left;verticalAlign=middle;spacingTop=-1;spacingLeft=3;spacingRight=3;rotatable=0;labelPosition=right;points=[];portConstraint=eastwest;" parent="k7wSuXpc-OqHTCkI8A_d-9" vertex="1">
          <mxGeometry y="26" width="270" height="8" as="geometry" />
        </mxCell>
        <mxCell id="k7wSuXpc-OqHTCkI8A_d-11" value="+ sendKakaoMessage(): void&lt;div&gt;+ verifyKakaoCode(): boolean&lt;/div&gt;" style="text;html=1;align=left;verticalAlign=middle;resizable=0;points=[];autosize=1;strokeColor=none;fillColor=none;" parent="k7wSuXpc-OqHTCkI8A_d-9" vertex="1">
          <mxGeometry y="34" width="270" height="40" as="geometry" />
        </mxCell>
        <mxCell id="k7wSuXpc-OqHTCkI8A_d-12" style="edgeStyle=orthogonalEdgeStyle;rounded=0;orthogonalLoop=1;jettySize=auto;html=1;dashed=1;exitX=0.5;exitY=0;exitDx=0;exitDy=0;endArrow=openThin;endFill=0;endSize=12;" parent="WIyWlLk6GJQsqaUBKTNV-1" source="k7wSuXpc-OqHTCkI8A_d-4" edge="1">
          <mxGeometry relative="1" as="geometry">
            <Array as="points">
              <mxPoint x="515" y="190" />
              <mxPoint x="515" y="190" />
            </Array>
            <mxPoint x="693" y="628" as="sourcePoint" />
            <mxPoint x="515" y="180" as="targetPoint" />
          </mxGeometry>
        </mxCell>
        <mxCell id="k7wSuXpc-OqHTCkI8A_d-13" value="&lt;b&gt;&lt;/b&gt;" style="edgeLabel;html=1;align=center;verticalAlign=middle;resizable=0;points=[];" parent="k7wSuXpc-OqHTCkI8A_d-12" vertex="1" connectable="0">
          <mxGeometry x="0.2181" y="-1" relative="1" as="geometry">
            <mxPoint as="offset" />
          </mxGeometry>
        </mxCell>
        <mxCell id="k7wSuXpc-OqHTCkI8A_d-14" value="UserAuthentication" style="swimlane;fontStyle=1;align=center;verticalAlign=top;childLayout=stackLayout;horizontal=1;startSize=26;horizontalStack=0;resizeParent=1;resizeLast=0;collapsible=1;marginBottom=0;rounded=0;shadow=0;strokeWidth=1;" parent="WIyWlLk6GJQsqaUBKTNV-1" vertex="1">
          <mxGeometry x="380" y="65" width="330" height="114" as="geometry">
            <mxRectangle x="230" y="140" width="160" height="26" as="alternateBounds" />
          </mxGeometry>
        </mxCell>
        <mxCell id="hKbBEOzbm7R7rT2PS4d6-23" value="- verificationAdapter: VerificationAdapter" style="text;html=1;align=left;verticalAlign=middle;resizable=0;points=[];autosize=1;strokeColor=none;fillColor=none;" parent="k7wSuXpc-OqHTCkI8A_d-14" vertex="1">
          <mxGeometry y="26" width="330" height="30" as="geometry" />
        </mxCell>
        <mxCell id="k7wSuXpc-OqHTCkI8A_d-15" value="" style="line;html=1;strokeWidth=1;align=left;verticalAlign=middle;spacingTop=-1;spacingLeft=3;spacingRight=3;rotatable=0;labelPosition=right;points=[];portConstraint=eastwest;" parent="k7wSuXpc-OqHTCkI8A_d-14" vertex="1">
          <mxGeometry y="56" width="330" height="24" as="geometry" />
        </mxCell>
        <mxCell id="k7wSuXpc-OqHTCkI8A_d-16" value="+ authenticateUser(uid : userId): boolean&#xa;+ setVerificationAdapter(adapter: VerificationAdapter): void" style="text;align=left;verticalAlign=top;spacingLeft=4;spacingRight=4;overflow=hidden;rotatable=0;points=[[0,0.5],[1,0.5]];portConstraint=eastwest;fontColor=#000000;" parent="k7wSuXpc-OqHTCkI8A_d-14" vertex="1">
          <mxGeometry y="80" width="330" height="30" as="geometry" />
        </mxCell>
        <mxCell id="k7wSuXpc-OqHTCkI8A_d-17" value="User" style="swimlane;fontStyle=3;align=center;verticalAlign=top;childLayout=stackLayout;horizontal=1;startSize=26;horizontalStack=0;resizeParent=1;resizeLast=0;collapsible=1;marginBottom=0;rounded=0;shadow=0;strokeWidth=1;" parent="WIyWlLk6GJQsqaUBKTNV-1" vertex="1">
          <mxGeometry x="94.69" y="240" width="190" height="160" as="geometry">
            <mxRectangle x="230" y="140" width="160" height="26" as="alternateBounds" />
          </mxGeometry>
        </mxCell>
        <mxCell id="k7wSuXpc-OqHTCkI8A_d-18" value="- userId: string&#xa;- userName: string&#xa;- password: string&#xa;- phoneNumber :string" style="text;align=left;verticalAlign=top;spacingLeft=4;spacingRight=4;overflow=hidden;rotatable=0;points=[[0,0.5],[1,0.5]];portConstraint=eastwest;" parent="k7wSuXpc-OqHTCkI8A_d-17" vertex="1">
          <mxGeometry y="26" width="190" height="70" as="geometry" />
        </mxCell>
        <mxCell id="k7wSuXpc-OqHTCkI8A_d-19" value="" style="line;html=1;strokeWidth=1;align=left;verticalAlign=middle;spacingTop=-1;spacingLeft=3;spacingRight=3;rotatable=0;labelPosition=right;points=[];portConstraint=eastwest;" parent="k7wSuXpc-OqHTCkI8A_d-17" vertex="1">
          <mxGeometry y="96" width="190" height="8" as="geometry" />
        </mxCell>
        <mxCell id="k7wSuXpc-OqHTCkI8A_d-20" value="+ login(id, password): void&#xa;+ updateProfile(User): void" style="text;align=left;verticalAlign=top;spacingLeft=4;spacingRight=4;overflow=hidden;rotatable=0;points=[[0,0.5],[1,0.5]];portConstraint=eastwest;" parent="k7wSuXpc-OqHTCkI8A_d-17" vertex="1">
          <mxGeometry y="104" width="190" height="32" as="geometry" />
        </mxCell>
        <mxCell id="k7wSuXpc-OqHTCkI8A_d-21" value="UserManager" style="swimlane;fontStyle=1;align=center;verticalAlign=top;childLayout=stackLayout;horizontal=1;startSize=26;horizontalStack=0;resizeParent=1;resizeLast=0;collapsible=1;marginBottom=0;rounded=0;shadow=0;strokeWidth=1;" parent="WIyWlLk6GJQsqaUBKTNV-1" vertex="1">
          <mxGeometry x="64.69" y="43" width="250" height="90" as="geometry">
            <mxRectangle x="230" y="140" width="160" height="26" as="alternateBounds" />
          </mxGeometry>
        </mxCell>
        <mxCell id="k7wSuXpc-OqHTCkI8A_d-22" value="" style="line;html=1;strokeWidth=1;align=left;verticalAlign=middle;spacingTop=-1;spacingLeft=3;spacingRight=3;rotatable=0;labelPosition=right;points=[];portConstraint=eastwest;" parent="k7wSuXpc-OqHTCkI8A_d-21" vertex="1">
          <mxGeometry y="26" width="250" height="8" as="geometry" />
        </mxCell>
        <mxCell id="k7wSuXpc-OqHTCkI8A_d-23" value="+ createUser(user:User): void&#xa;+ deleteUser(user:User): void&#xa;+ updateUser(user:User): void " style="text;align=left;verticalAlign=top;spacingLeft=4;spacingRight=4;overflow=hidden;rotatable=0;points=[[0,0.5],[1,0.5]];portConstraint=eastwest;" parent="k7wSuXpc-OqHTCkI8A_d-21" vertex="1">
          <mxGeometry y="34" width="250" height="56" as="geometry" />
        </mxCell>
        <mxCell id="k7wSuXpc-OqHTCkI8A_d-24" value="" style="edgeStyle=orthogonalEdgeStyle;rounded=0;orthogonalLoop=1;jettySize=auto;html=1;endArrow=blockThin;endFill=1;endSize=12;" parent="WIyWlLk6GJQsqaUBKTNV-1" source="k7wSuXpc-OqHTCkI8A_d-26" target="k7wSuXpc-OqHTCkI8A_d-17" edge="1">
          <mxGeometry relative="1" as="geometry">
            <mxPoint x="290" y="340" as="targetPoint" />
            <Array as="points">
              <mxPoint x="120" y="184" />
            </Array>
          </mxGeometry>
        </mxCell>
        <mxCell id="k7wSuXpc-OqHTCkI8A_d-25" value="&lt;b&gt;&lt;/b&gt;" style="edgeLabel;html=1;align=center;verticalAlign=middle;resizable=0;points=[];" parent="k7wSuXpc-OqHTCkI8A_d-24" vertex="1" connectable="0">
          <mxGeometry x="-0.0603" y="-1" relative="1" as="geometry">
            <mxPoint as="offset" />
          </mxGeometry>
        </mxCell>
        <mxCell id="jgWhs5KkmwtUaRcZvf3S-8" value="register" style="edgeLabel;html=1;align=center;verticalAlign=middle;resizable=0;points=[];" parent="k7wSuXpc-OqHTCkI8A_d-24" vertex="1" connectable="0">
          <mxGeometry x="0.3817" y="-2" relative="1" as="geometry">
            <mxPoint as="offset" />
          </mxGeometry>
        </mxCell>
        <mxCell id="k7wSuXpc-OqHTCkI8A_d-26" value="Registration" style="swimlane;fontStyle=1;align=center;verticalAlign=top;childLayout=stackLayout;horizontal=1;startSize=26;horizontalStack=0;resizeParent=1;resizeLast=0;collapsible=1;marginBottom=0;rounded=0;shadow=0;strokeWidth=1;fillColor=none;" parent="WIyWlLk6GJQsqaUBKTNV-1" vertex="1">
          <mxGeometry x="-173.5" y="154" width="227" height="60" as="geometry">
            <mxRectangle x="230" y="140" width="160" height="26" as="alternateBounds" />
          </mxGeometry>
        </mxCell>
        <mxCell id="k7wSuXpc-OqHTCkI8A_d-27" value="" style="line;html=1;strokeWidth=1;align=left;verticalAlign=middle;spacingTop=-1;spacingLeft=3;spacingRight=3;rotatable=0;labelPosition=right;points=[];portConstraint=eastwest;" parent="k7wSuXpc-OqHTCkI8A_d-26" vertex="1">
          <mxGeometry y="26" width="227" height="8" as="geometry" />
        </mxCell>
        <mxCell id="k7wSuXpc-OqHTCkI8A_d-28" value="+ registerUser(): User" style="text;align=left;verticalAlign=top;spacingLeft=4;spacingRight=4;overflow=hidden;rotatable=0;points=[[0,0.5],[1,0.5]];portConstraint=eastwest;" parent="k7wSuXpc-OqHTCkI8A_d-26" vertex="1">
          <mxGeometry y="34" width="227" height="26" as="geometry" />
        </mxCell>
        <mxCell id="k7wSuXpc-OqHTCkI8A_d-29" style="edgeStyle=orthogonalEdgeStyle;rounded=0;orthogonalLoop=1;jettySize=auto;html=1;exitX=0.5;exitY=1;exitDx=0;exitDy=0;endArrow=blockThin;endFill=1;endSize=12;entryX=0.392;entryY=0.016;entryDx=0;entryDy=0;entryPerimeter=0;" parent="WIyWlLk6GJQsqaUBKTNV-1" target="k7wSuXpc-OqHTCkI8A_d-14" edge="1">
          <mxGeometry relative="1" as="geometry">
            <mxPoint x="510" y="60" as="targetPoint" />
            <Array as="points">
              <mxPoint x="334" y="20" />
              <mxPoint x="509" y="20" />
            </Array>
            <mxPoint x="334" y="-15.5" as="sourcePoint" />
          </mxGeometry>
        </mxCell>
        <mxCell id="k7wSuXpc-OqHTCkI8A_d-30" value="&lt;b&gt;&lt;/b&gt;" style="edgeLabel;html=1;align=center;verticalAlign=middle;resizable=0;points=[];" parent="k7wSuXpc-OqHTCkI8A_d-29" vertex="1" connectable="0">
          <mxGeometry x="0.2585" y="3" relative="1" as="geometry">
            <mxPoint as="offset" />
          </mxGeometry>
        </mxCell>
        <mxCell id="jgWhs5KkmwtUaRcZvf3S-10" value="register" style="edgeLabel;html=1;align=center;verticalAlign=middle;resizable=0;points=[];" parent="k7wSuXpc-OqHTCkI8A_d-29" vertex="1" connectable="0">
          <mxGeometry x="0.7381" relative="1" as="geometry">
            <mxPoint as="offset" />
          </mxGeometry>
        </mxCell>
        <mxCell id="k7wSuXpc-OqHTCkI8A_d-31" value="SMSVerification" style="swimlane;fontStyle=1;align=center;verticalAlign=top;childLayout=stackLayout;horizontal=1;startSize=26;horizontalStack=0;resizeParent=1;resizeLast=0;collapsible=1;marginBottom=0;rounded=0;shadow=0;strokeWidth=1;" parent="WIyWlLk6GJQsqaUBKTNV-1" vertex="1">
          <mxGeometry x="245" y="-94.5" width="230" height="79" as="geometry">
            <mxRectangle x="230" y="140" width="160" height="26" as="alternateBounds" />
          </mxGeometry>
        </mxCell>
        <mxCell id="k7wSuXpc-OqHTCkI8A_d-32" value="" style="line;html=1;strokeWidth=1;align=left;verticalAlign=middle;spacingTop=-1;spacingLeft=3;spacingRight=3;rotatable=0;labelPosition=right;points=[];portConstraint=eastwest;" parent="k7wSuXpc-OqHTCkI8A_d-31" vertex="1">
          <mxGeometry y="26" width="230" height="8" as="geometry" />
        </mxCell>
        <mxCell id="k7wSuXpc-OqHTCkI8A_d-33" value="+ sendSMSCode(): void&#xa;+ verifySMSCode(): boolean" style="text;align=left;verticalAlign=top;spacingLeft=4;spacingRight=4;overflow=hidden;rotatable=0;points=[[0,0.5],[1,0.5]];portConstraint=eastwest;" parent="k7wSuXpc-OqHTCkI8A_d-31" vertex="1">
          <mxGeometry y="34" width="230" height="36" as="geometry" />
        </mxCell>
        <mxCell id="k7wSuXpc-OqHTCkI8A_d-37" style="edgeStyle=orthogonalEdgeStyle;rounded=0;orthogonalLoop=1;jettySize=auto;html=1;exitX=0.5;exitY=1;exitDx=0;exitDy=0;endArrow=blockThin;endFill=0;endSize=12;" parent="WIyWlLk6GJQsqaUBKTNV-1" source="k7wSuXpc-OqHTCkI8A_d-40" target="k7wSuXpc-OqHTCkI8A_d-21" edge="1">
          <mxGeometry relative="1" as="geometry">
            <Array as="points">
              <mxPoint x="-95" />
              <mxPoint x="190" />
            </Array>
          </mxGeometry>
        </mxCell>
        <mxCell id="k7wSuXpc-OqHTCkI8A_d-40" value="&lt;&lt;abstaract&gt;&gt;&#xa;Manager" style="swimlane;fontStyle=1;align=center;verticalAlign=top;childLayout=stackLayout;horizontal=1;startSize=40;horizontalStack=0;resizeParent=1;resizeLast=0;collapsible=1;marginBottom=0;rounded=0;shadow=0;strokeWidth=1;" parent="WIyWlLk6GJQsqaUBKTNV-1" vertex="1">
          <mxGeometry x="-220" y="-80" width="250" height="50" as="geometry">
            <mxRectangle x="230" y="140" width="160" height="26" as="alternateBounds" />
          </mxGeometry>
        </mxCell>
        <mxCell id="k7wSuXpc-OqHTCkI8A_d-41" value="" style="line;html=1;strokeWidth=1;align=left;verticalAlign=middle;spacingTop=-1;spacingLeft=3;spacingRight=3;rotatable=0;labelPosition=right;points=[];portConstraint=eastwest;" parent="k7wSuXpc-OqHTCkI8A_d-40" vertex="1">
          <mxGeometry y="40" width="250" height="8" as="geometry" />
        </mxCell>
        <mxCell id="k7wSuXpc-OqHTCkI8A_d-42" value="ShowManager" style="swimlane;fontStyle=1;align=center;verticalAlign=top;childLayout=stackLayout;horizontal=1;startSize=26;horizontalStack=0;resizeParent=1;resizeLast=0;collapsible=1;marginBottom=0;rounded=0;shadow=0;strokeWidth=1;" parent="WIyWlLk6GJQsqaUBKTNV-1" vertex="1">
          <mxGeometry x="-470" y="77" width="250" height="90" as="geometry">
            <mxRectangle x="230" y="140" width="160" height="26" as="alternateBounds" />
          </mxGeometry>
        </mxCell>
        <mxCell id="k7wSuXpc-OqHTCkI8A_d-43" value="" style="line;html=1;strokeWidth=1;align=left;verticalAlign=middle;spacingTop=-1;spacingLeft=3;spacingRight=3;rotatable=0;labelPosition=right;points=[];portConstraint=eastwest;" parent="k7wSuXpc-OqHTCkI8A_d-42" vertex="1">
          <mxGeometry y="26" width="250" height="8" as="geometry" />
        </mxCell>
        <mxCell id="k7wSuXpc-OqHTCkI8A_d-44" value="+ addShow(show:Show): void&#xa;+ updateShow(show:Show): void&#xa;+ deleteShow(show:Show): void" style="text;align=left;verticalAlign=top;spacingLeft=4;spacingRight=4;overflow=hidden;rotatable=0;points=[[0,0.5],[1,0.5]];portConstraint=eastwest;" parent="k7wSuXpc-OqHTCkI8A_d-42" vertex="1">
          <mxGeometry y="34" width="250" height="56" as="geometry" />
        </mxCell>
        <mxCell id="k7wSuXpc-OqHTCkI8A_d-142" style="edgeStyle=orthogonalEdgeStyle;rounded=0;orthogonalLoop=1;jettySize=auto;html=1;exitX=0.421;exitY=0.996;exitDx=0;exitDy=0;exitPerimeter=0;entryX=0.874;entryY=0.001;entryDx=0;entryDy=0;entryPerimeter=0;dashed=1;endArrow=openThin;endFill=0;endSize=12;" parent="WIyWlLk6GJQsqaUBKTNV-1" edge="1">
          <mxGeometry relative="1" as="geometry">
            <mxPoint x="-440.1500000000001" y="660.8000000000001" as="targetPoint" />
            <mxPoint x="-490" y="551.0019999999998" as="sourcePoint" />
            <Array as="points">
              <mxPoint x="-439.99" y="590.65" />
              <mxPoint x="-439.99" y="590.65" />
            </Array>
          </mxGeometry>
        </mxCell>
        <mxCell id="k7wSuXpc-OqHTCkI8A_d-143" value="" style="edgeLabel;html=1;align=center;verticalAlign=middle;resizable=0;points=[];" parent="k7wSuXpc-OqHTCkI8A_d-142" vertex="1" connectable="0">
          <mxGeometry x="-0.1165" y="1" relative="1" as="geometry">
            <mxPoint x="-1" y="-2" as="offset" />
          </mxGeometry>
        </mxCell>
        <mxCell id="k7wSuXpc-OqHTCkI8A_d-46" value="&lt;i&gt;PathFinder&lt;/i&gt;" style="swimlane;fontStyle=1;align=center;verticalAlign=top;childLayout=stackLayout;horizontal=1;startSize=26;horizontalStack=0;resizeParent=1;resizeParentMax=0;resizeLast=0;collapsible=1;marginBottom=0;whiteSpace=wrap;html=1;" parent="WIyWlLk6GJQsqaUBKTNV-1" vertex="1">
          <mxGeometry x="-500" y="660" width="160" height="120" as="geometry" />
        </mxCell>
        <mxCell id="k7wSuXpc-OqHTCkI8A_d-47" value="- currentLocation: Locaiton&lt;div&gt;- eventLocation: Location&lt;/div&gt;" style="text;strokeColor=none;fillColor=none;align=left;verticalAlign=top;spacingLeft=4;spacingRight=4;overflow=hidden;rotatable=0;points=[[0,0.5],[1,0.5]];portConstraint=eastwest;whiteSpace=wrap;html=1;" parent="k7wSuXpc-OqHTCkI8A_d-46" vertex="1">
          <mxGeometry y="26" width="160" height="44" as="geometry" />
        </mxCell>
        <mxCell id="k7wSuXpc-OqHTCkI8A_d-48" value="" style="line;strokeWidth=1;fillColor=none;align=left;verticalAlign=middle;spacingTop=-1;spacingLeft=3;spacingRight=3;rotatable=0;labelPosition=right;points=[];portConstraint=eastwest;strokeColor=inherit;" parent="k7wSuXpc-OqHTCkI8A_d-46" vertex="1">
          <mxGeometry y="70" width="160" height="8" as="geometry" />
        </mxCell>
        <mxCell id="k7wSuXpc-OqHTCkI8A_d-49" value="&lt;div&gt;+createAlgorithm(): PathAlgorithm{abstract}&lt;/div&gt;" style="text;strokeColor=none;fillColor=none;align=left;verticalAlign=top;spacingLeft=4;spacingRight=4;overflow=hidden;rotatable=0;points=[[0,0.5],[1,0.5]];portConstraint=eastwest;whiteSpace=wrap;html=1;" parent="k7wSuXpc-OqHTCkI8A_d-46" vertex="1">
          <mxGeometry y="78" width="160" height="42" as="geometry" />
        </mxCell>
        <mxCell id="k7wSuXpc-OqHTCkI8A_d-52" style="edgeStyle=orthogonalEdgeStyle;rounded=0;orthogonalLoop=1;jettySize=auto;html=1;startArrow=diamond;startFill=1;endArrow=openThin;endFill=0;endSize=12;startSize=12;entryX=0.513;entryY=-0.01;entryDx=0;entryDy=0;entryPerimeter=0;" parent="WIyWlLk6GJQsqaUBKTNV-1" target="ceErDbgAxqzRxjVDZLfd-102" edge="1">
          <mxGeometry relative="1" as="geometry">
            <mxPoint x="290" y="350" as="sourcePoint" />
            <Array as="points">
              <mxPoint x="290" y="344" />
              <mxPoint x="510" y="344" />
            </Array>
            <mxPoint x="510" y="380" as="targetPoint" />
          </mxGeometry>
        </mxCell>
        <mxCell id="k7wSuXpc-OqHTCkI8A_d-56" value="GPS" style="swimlane;fontStyle=1;align=center;verticalAlign=top;childLayout=stackLayout;horizontal=1;startSize=26;horizontalStack=0;resizeParent=1;resizeParentMax=0;resizeLast=0;collapsible=1;marginBottom=0;whiteSpace=wrap;html=1;" parent="WIyWlLk6GJQsqaUBKTNV-1" vertex="1">
          <mxGeometry x="-730" y="566.5" width="160" height="74" as="geometry" />
        </mxCell>
        <mxCell id="k7wSuXpc-OqHTCkI8A_d-57" value="" style="line;strokeWidth=1;fillColor=none;align=left;verticalAlign=middle;spacingTop=-1;spacingLeft=3;spacingRight=3;rotatable=0;labelPosition=right;points=[];portConstraint=eastwest;strokeColor=inherit;" parent="k7wSuXpc-OqHTCkI8A_d-56" vertex="1">
          <mxGeometry y="26" width="160" height="8" as="geometry" />
        </mxCell>
        <mxCell id="k7wSuXpc-OqHTCkI8A_d-58" value="+getCurrentLocation(): Location" style="text;strokeColor=none;fillColor=none;align=left;verticalAlign=top;spacingLeft=4;spacingRight=4;overflow=hidden;rotatable=0;points=[[0,0.5],[1,0.5]];portConstraint=eastwest;whiteSpace=wrap;html=1;" parent="k7wSuXpc-OqHTCkI8A_d-56" vertex="1">
          <mxGeometry y="34" width="160" height="40" as="geometry" />
        </mxCell>
        <mxCell id="k7wSuXpc-OqHTCkI8A_d-59" value="Location" style="swimlane;fontStyle=1;align=center;verticalAlign=top;childLayout=stackLayout;horizontal=1;startSize=26;horizontalStack=0;resizeParent=1;resizeParentMax=0;resizeLast=0;collapsible=1;marginBottom=0;whiteSpace=wrap;html=1;" parent="WIyWlLk6GJQsqaUBKTNV-1" vertex="1">
          <mxGeometry x="-1210" y="771" width="160" height="88" as="geometry">
            <mxRectangle x="334" y="140" width="90" height="30" as="alternateBounds" />
          </mxGeometry>
        </mxCell>
        <mxCell id="k7wSuXpc-OqHTCkI8A_d-60" value="&lt;div&gt;-name: String&lt;/div&gt;&lt;div&gt;-atitude: float&lt;/div&gt;&lt;div&gt;-longitude: float&lt;/div&gt;" style="text;strokeColor=none;fillColor=none;align=left;verticalAlign=top;spacingLeft=4;spacingRight=4;overflow=hidden;rotatable=0;points=[[0,0.5],[1,0.5]];portConstraint=eastwest;whiteSpace=wrap;html=1;" parent="k7wSuXpc-OqHTCkI8A_d-59" vertex="1">
          <mxGeometry y="26" width="160" height="54" as="geometry" />
        </mxCell>
        <mxCell id="k7wSuXpc-OqHTCkI8A_d-61" value="" style="line;strokeWidth=1;fillColor=none;align=left;verticalAlign=middle;spacingTop=-1;spacingLeft=3;spacingRight=3;rotatable=0;labelPosition=right;points=[];portConstraint=eastwest;strokeColor=inherit;" parent="k7wSuXpc-OqHTCkI8A_d-59" vertex="1">
          <mxGeometry y="80" width="160" height="8" as="geometry" />
        </mxCell>
        <mxCell id="k7wSuXpc-OqHTCkI8A_d-62" style="edgeStyle=orthogonalEdgeStyle;rounded=0;orthogonalLoop=1;jettySize=auto;html=1;exitX=1;exitY=0.5;exitDx=0;exitDy=0;fontSize=12;startSize=8;endSize=8;entryX=0;entryY=0.149;entryDx=0;entryDy=0;entryPerimeter=0;endArrow=none;endFill=0;" parent="WIyWlLk6GJQsqaUBKTNV-1" source="k7wSuXpc-OqHTCkI8A_d-58" target="k7wSuXpc-OqHTCkI8A_d-46" edge="1">
          <mxGeometry relative="1" as="geometry">
            <mxPoint x="-580" y="530" as="targetPoint" />
            <Array as="points">
              <mxPoint x="-540" y="621" />
              <mxPoint x="-540" y="682" />
              <mxPoint x="-500" y="682" />
            </Array>
          </mxGeometry>
        </mxCell>
        <mxCell id="k7wSuXpc-OqHTCkI8A_d-63" value="" style="edgeLabel;html=1;align=center;verticalAlign=middle;resizable=0;points=[];fontStyle=1" parent="k7wSuXpc-OqHTCkI8A_d-62" vertex="1" connectable="0">
          <mxGeometry x="-0.1617" y="-1" relative="1" as="geometry">
            <mxPoint as="offset" />
          </mxGeometry>
        </mxCell>
        <mxCell id="k7wSuXpc-OqHTCkI8A_d-64" style="edgeStyle=elbowEdgeStyle;rounded=0;orthogonalLoop=1;jettySize=auto;html=1;exitX=0.003;exitY=0.992;exitDx=0;exitDy=0;fontSize=12;startSize=8;endSize=12;exitPerimeter=0;dashed=1;endArrow=openThin;endFill=0;entryX=1;entryY=0.5;entryDx=0;entryDy=0;" parent="WIyWlLk6GJQsqaUBKTNV-1" source="k7wSuXpc-OqHTCkI8A_d-47" target="ceErDbgAxqzRxjVDZLfd-69" edge="1">
          <mxGeometry relative="1" as="geometry">
            <mxPoint x="-530" y="730" as="sourcePoint" />
            <mxPoint x="-550" y="830" as="targetPoint" />
            <Array as="points">
              <mxPoint x="-530" y="810" />
            </Array>
          </mxGeometry>
        </mxCell>
        <mxCell id="k7wSuXpc-OqHTCkI8A_d-65" value="&lt;b&gt;&lt;/b&gt;" style="edgeLabel;html=1;align=center;verticalAlign=middle;resizable=0;points=[];fontSize=12;" parent="k7wSuXpc-OqHTCkI8A_d-64" vertex="1" connectable="0">
          <mxGeometry x="0.2305" y="-2" relative="1" as="geometry">
            <mxPoint as="offset" />
          </mxGeometry>
        </mxCell>
        <mxCell id="k7wSuXpc-OqHTCkI8A_d-118" style="edgeStyle=orthogonalEdgeStyle;rounded=0;orthogonalLoop=1;jettySize=auto;html=1;dashed=1;endArrow=openThin;endFill=0;endSize=12;" parent="WIyWlLk6GJQsqaUBKTNV-1" source="k7wSuXpc-OqHTCkI8A_d-70" edge="1">
          <mxGeometry relative="1" as="geometry">
            <mxPoint x="-300" y="530" as="targetPoint" />
            <Array as="points">
              <mxPoint x="-150" y="620" />
              <mxPoint x="-230" y="620" />
              <mxPoint x="-230" y="530" />
            </Array>
          </mxGeometry>
        </mxCell>
        <mxCell id="k7wSuXpc-OqHTCkI8A_d-120" value="" style="edgeLabel;html=1;align=center;verticalAlign=middle;resizable=0;points=[];" parent="k7wSuXpc-OqHTCkI8A_d-118" vertex="1" connectable="0">
          <mxGeometry x="0.3509" y="-1" relative="1" as="geometry">
            <mxPoint x="-165" y="-7" as="offset" />
          </mxGeometry>
        </mxCell>
        <mxCell id="k7wSuXpc-OqHTCkI8A_d-70" value="ShowReview" style="swimlane;fontStyle=1;align=center;verticalAlign=top;childLayout=stackLayout;horizontal=1;startSize=26;horizontalStack=0;resizeParent=1;resizeParentMax=0;resizeLast=0;collapsible=1;marginBottom=0;whiteSpace=wrap;html=1;" parent="WIyWlLk6GJQsqaUBKTNV-1" vertex="1">
          <mxGeometry x="-260" y="657" width="210" height="130" as="geometry" />
        </mxCell>
        <mxCell id="k7wSuXpc-OqHTCkI8A_d-71" value="&lt;div&gt;&lt;br&gt;&lt;/div&gt;" style="text;strokeColor=none;fillColor=none;align=left;verticalAlign=top;spacingLeft=4;spacingRight=4;overflow=hidden;rotatable=0;points=[[0,0.5],[1,0.5]];portConstraint=eastwest;whiteSpace=wrap;html=1;" parent="k7wSuXpc-OqHTCkI8A_d-70" vertex="1">
          <mxGeometry y="26" width="210" height="4" as="geometry" />
        </mxCell>
        <mxCell id="k7wSuXpc-OqHTCkI8A_d-72" value="" style="line;strokeWidth=1;fillColor=none;align=left;verticalAlign=middle;spacingTop=-1;spacingLeft=3;spacingRight=3;rotatable=0;labelPosition=right;points=[];portConstraint=eastwest;strokeColor=inherit;" parent="k7wSuXpc-OqHTCkI8A_d-70" vertex="1">
          <mxGeometry y="30" width="210" height="8" as="geometry" />
        </mxCell>
        <mxCell id="k7wSuXpc-OqHTCkI8A_d-73" value="&lt;div&gt;+writeReview(show:Show): void&lt;/div&gt;&lt;div&gt;&lt;span style=&quot;background-color: initial;&quot;&gt;+saveReview(show:Show): void&lt;/span&gt;&lt;br&gt;&lt;/div&gt;&lt;div&gt;&lt;span style=&quot;background-color: initial;&quot;&gt;+delete&lt;/span&gt;&lt;span style=&quot;background-color: initial;&quot;&gt;Review&lt;/span&gt;&lt;span style=&quot;background-color: initial;&quot;&gt;(&lt;/span&gt;&lt;span style=&quot;background-color: initial;&quot;&gt;show:&lt;/span&gt;&lt;span style=&quot;background-color: initial;&quot;&gt;Show&lt;/span&gt;&lt;span style=&quot;background-color: initial;&quot;&gt;): void&lt;/span&gt;&lt;br&gt;&lt;/div&gt;&lt;div&gt;&lt;span style=&quot;background-color: initial;&quot;&gt;+display&lt;/span&gt;&lt;span style=&quot;background-color: initial;&quot;&gt;Review&lt;/span&gt;&lt;span style=&quot;background-color: initial;&quot;&gt;(&lt;/span&gt;&lt;span style=&quot;background-color: initial;&quot;&gt;show:&lt;/span&gt;&lt;span style=&quot;background-color: initial;&quot;&gt;Show&lt;/span&gt;&lt;span style=&quot;background-color: initial;&quot;&gt;): void&lt;/span&gt;&lt;br&gt;&lt;/div&gt;" style="text;strokeColor=none;fillColor=none;align=left;verticalAlign=top;spacingLeft=4;spacingRight=4;overflow=hidden;rotatable=0;points=[[0,0.5],[1,0.5]];portConstraint=eastwest;whiteSpace=wrap;html=1;" parent="k7wSuXpc-OqHTCkI8A_d-70" vertex="1">
          <mxGeometry y="38" width="210" height="92" as="geometry" />
        </mxCell>
        <mxCell id="k7wSuXpc-OqHTCkI8A_d-74" value="Path" style="swimlane;fontStyle=1;align=center;verticalAlign=top;childLayout=stackLayout;horizontal=1;startSize=26;horizontalStack=0;resizeParent=1;resizeParentMax=0;resizeLast=0;collapsible=1;marginBottom=0;whiteSpace=wrap;html=1;" parent="WIyWlLk6GJQsqaUBKTNV-1" vertex="1">
          <mxGeometry x="-730" y="656.5" width="160" height="94" as="geometry" />
        </mxCell>
        <mxCell id="k7wSuXpc-OqHTCkI8A_d-75" value="-pathInfo: String&lt;div&gt;-arrivalTime: DateTime&lt;/div&gt;" style="text;strokeColor=none;fillColor=none;align=left;verticalAlign=top;spacingLeft=4;spacingRight=4;overflow=hidden;rotatable=0;points=[[0,0.5],[1,0.5]];portConstraint=eastwest;whiteSpace=wrap;html=1;" parent="k7wSuXpc-OqHTCkI8A_d-74" vertex="1">
          <mxGeometry y="26" width="160" height="34" as="geometry" />
        </mxCell>
        <mxCell id="k7wSuXpc-OqHTCkI8A_d-76" value="" style="line;strokeWidth=1;fillColor=none;align=left;verticalAlign=middle;spacingTop=-1;spacingLeft=3;spacingRight=3;rotatable=0;labelPosition=right;points=[];portConstraint=eastwest;strokeColor=inherit;" parent="k7wSuXpc-OqHTCkI8A_d-74" vertex="1">
          <mxGeometry y="60" width="160" height="8" as="geometry" />
        </mxCell>
        <mxCell id="k7wSuXpc-OqHTCkI8A_d-77" value="+ displayPath(): Path" style="text;strokeColor=none;fillColor=none;align=left;verticalAlign=top;spacingLeft=4;spacingRight=4;overflow=hidden;rotatable=0;points=[[0,0.5],[1,0.5]];portConstraint=eastwest;whiteSpace=wrap;html=1;" parent="k7wSuXpc-OqHTCkI8A_d-74" vertex="1">
          <mxGeometry y="68" width="160" height="26" as="geometry" />
        </mxCell>
        <mxCell id="k7wSuXpc-OqHTCkI8A_d-115" style="edgeStyle=orthogonalEdgeStyle;rounded=0;orthogonalLoop=1;jettySize=auto;html=1;endArrow=blockThin;endFill=0;exitX=0.5;exitY=0;exitDx=0;exitDy=0;endSize=12;" parent="WIyWlLk6GJQsqaUBKTNV-1" source="k7wSuXpc-OqHTCkI8A_d-79" target="k7wSuXpc-OqHTCkI8A_d-73" edge="1">
          <mxGeometry relative="1" as="geometry">
            <Array as="points">
              <mxPoint x="60" y="820" />
              <mxPoint x="-190" y="820" />
            </Array>
          </mxGeometry>
        </mxCell>
        <mxCell id="k7wSuXpc-OqHTCkI8A_d-116" style="edgeStyle=orthogonalEdgeStyle;rounded=0;orthogonalLoop=1;jettySize=auto;html=1;endArrow=blockThin;endFill=0;exitX=0.5;exitY=0;exitDx=0;exitDy=0;endSize=12;" parent="WIyWlLk6GJQsqaUBKTNV-1" source="k7wSuXpc-OqHTCkI8A_d-79" target="eqaIh_Kuwr5XpTDgUAO9-41" edge="1">
          <mxGeometry relative="1" as="geometry">
            <mxPoint x="60" y="934.97" as="sourcePoint" />
            <mxPoint x="19" y="790" as="targetPoint" />
            <Array as="points">
              <mxPoint x="60" y="820" />
              <mxPoint x="20" y="820" />
            </Array>
          </mxGeometry>
        </mxCell>
        <mxCell id="k7wSuXpc-OqHTCkI8A_d-79" value="&amp;lt;&amp;lt;abstract&amp;gt;&amp;gt;&lt;br&gt;Review" style="swimlane;fontStyle=1;align=center;verticalAlign=top;childLayout=stackLayout;horizontal=1;startSize=39;horizontalStack=0;resizeParent=1;resizeParentMax=0;resizeLast=0;collapsible=1;marginBottom=0;whiteSpace=wrap;html=1;" parent="WIyWlLk6GJQsqaUBKTNV-1" vertex="1">
          <mxGeometry x="-20" y="871" width="160" height="120" as="geometry" />
        </mxCell>
        <mxCell id="k7wSuXpc-OqHTCkI8A_d-80" value="-reviewId: int&lt;div&gt;-content: String&lt;/div&gt;&lt;div&gt;-rating: int&lt;/div&gt;&lt;div&gt;-image : Image&lt;/div&gt;" style="text;strokeColor=none;fillColor=none;align=left;verticalAlign=top;spacingLeft=4;spacingRight=4;overflow=hidden;rotatable=0;points=[[0,0.5],[1,0.5]];portConstraint=eastwest;whiteSpace=wrap;html=1;" parent="k7wSuXpc-OqHTCkI8A_d-79" vertex="1">
          <mxGeometry y="39" width="160" height="71" as="geometry" />
        </mxCell>
        <mxCell id="k7wSuXpc-OqHTCkI8A_d-81" value="" style="line;strokeWidth=1;fillColor=none;align=left;verticalAlign=middle;spacingTop=-1;spacingLeft=3;spacingRight=3;rotatable=0;labelPosition=right;points=[];portConstraint=eastwest;strokeColor=inherit;" parent="k7wSuXpc-OqHTCkI8A_d-79" vertex="1">
          <mxGeometry y="110" width="160" height="10" as="geometry" />
        </mxCell>
        <mxCell id="k7wSuXpc-OqHTCkI8A_d-84" value="ShowRecommendation" style="swimlane;fontStyle=1;align=center;verticalAlign=top;childLayout=stackLayout;horizontal=1;startSize=26;horizontalStack=0;resizeParent=1;resizeParentMax=0;resizeLast=0;collapsible=1;marginBottom=0;whiteSpace=wrap;html=1;" parent="WIyWlLk6GJQsqaUBKTNV-1" vertex="1">
          <mxGeometry x="220" y="656.5" width="280" height="114" as="geometry" />
        </mxCell>
        <mxCell id="k7wSuXpc-OqHTCkI8A_d-85" value="&lt;div&gt;&lt;span style=&quot;background-color: initial;&quot;&gt;- showData: unordered_map&amp;lt;int&amp;gt;&amp;nbsp;&lt;/span&gt;&lt;br&gt;&lt;/div&gt;" style="text;strokeColor=none;fillColor=none;align=left;verticalAlign=top;spacingLeft=4;spacingRight=4;overflow=hidden;rotatable=0;points=[[0,0.5],[1,0.5]];portConstraint=eastwest;whiteSpace=wrap;html=1;" parent="k7wSuXpc-OqHTCkI8A_d-84" vertex="1">
          <mxGeometry y="26" width="280" height="24" as="geometry" />
        </mxCell>
        <mxCell id="k7wSuXpc-OqHTCkI8A_d-86" value="" style="line;strokeWidth=1;fillColor=none;align=left;verticalAlign=middle;spacingTop=-1;spacingLeft=3;spacingRight=3;rotatable=0;labelPosition=right;points=[];portConstraint=eastwest;strokeColor=inherit;" parent="k7wSuXpc-OqHTCkI8A_d-84" vertex="1">
          <mxGeometry y="50" width="280" height="8" as="geometry" />
        </mxCell>
        <mxCell id="k7wSuXpc-OqHTCkI8A_d-87" value="+ recommendShow(userData: Preference, showData: unordered_map&amp;lt;int&amp;gt;): List&amp;lt;int&amp;gt;&amp;nbsp;&lt;div&gt;+ update(preference: Preference)&lt;br&gt;&lt;/div&gt;" style="text;strokeColor=none;fillColor=none;align=left;verticalAlign=top;spacingLeft=4;spacingRight=4;overflow=hidden;rotatable=0;points=[[0,0.5],[1,0.5]];portConstraint=eastwest;whiteSpace=wrap;html=1;" parent="k7wSuXpc-OqHTCkI8A_d-84" vertex="1">
          <mxGeometry y="58" width="280" height="56" as="geometry" />
        </mxCell>
        <mxCell id="k7wSuXpc-OqHTCkI8A_d-144" style="edgeStyle=orthogonalEdgeStyle;rounded=0;orthogonalLoop=1;jettySize=auto;html=1;exitX=0.644;exitY=0.004;exitDx=0;exitDy=0;dashed=1;endArrow=openThin;endFill=0;endSize=12;exitPerimeter=0;entryX=0.211;entryY=0.997;entryDx=0;entryDy=0;entryPerimeter=0;" parent="WIyWlLk6GJQsqaUBKTNV-1" source="k7wSuXpc-OqHTCkI8A_d-84" target="ceErDbgAxqzRxjVDZLfd-105" edge="1">
          <mxGeometry relative="1" as="geometry">
            <Array as="points">
              <mxPoint x="400" y="620" />
              <mxPoint x="401" y="620" />
            </Array>
            <mxPoint x="401" y="600" as="targetPoint" />
          </mxGeometry>
        </mxCell>
        <mxCell id="k7wSuXpc-OqHTCkI8A_d-145" value="" style="edgeLabel;html=1;align=center;verticalAlign=middle;resizable=0;points=[];" parent="k7wSuXpc-OqHTCkI8A_d-144" vertex="1" connectable="0">
          <mxGeometry x="-0.106" y="1" relative="1" as="geometry">
            <mxPoint as="offset" />
          </mxGeometry>
        </mxCell>
        <mxCell id="k7wSuXpc-OqHTCkI8A_d-91" style="edgeStyle=none;curved=1;rounded=0;orthogonalLoop=1;jettySize=auto;html=1;exitX=0.75;exitY=0;exitDx=0;exitDy=0;fontSize=12;startSize=8;endSize=8;" parent="WIyWlLk6GJQsqaUBKTNV-1" edge="1">
          <mxGeometry relative="1" as="geometry">
            <mxPoint x="584.69" y="400" as="sourcePoint" />
            <mxPoint x="584.69" y="400" as="targetPoint" />
          </mxGeometry>
        </mxCell>
        <mxCell id="k7wSuXpc-OqHTCkI8A_d-102" value="PreferenceController" style="swimlane;fontStyle=1;align=center;verticalAlign=top;childLayout=stackLayout;horizontal=1;startSize=26;horizontalStack=0;resizeParent=1;resizeParentMax=0;resizeLast=0;collapsible=1;marginBottom=0;whiteSpace=wrap;html=1;" parent="WIyWlLk6GJQsqaUBKTNV-1" vertex="1">
          <mxGeometry x="740" y="419" width="260" height="90" as="geometry" />
        </mxCell>
        <mxCell id="k7wSuXpc-OqHTCkI8A_d-103" value="" style="line;strokeWidth=1;fillColor=none;align=left;verticalAlign=middle;spacingTop=-1;spacingLeft=3;spacingRight=3;rotatable=0;labelPosition=right;points=[];portConstraint=eastwest;strokeColor=inherit;" parent="k7wSuXpc-OqHTCkI8A_d-102" vertex="1">
          <mxGeometry y="26" width="260" height="8" as="geometry" />
        </mxCell>
        <mxCell id="k7wSuXpc-OqHTCkI8A_d-137" value="+ checkPreference(prefer:Preference): void&lt;div&gt;+&amp;nbsp;&lt;span style=&quot;background-color: initial;&quot;&gt;changePreference(prefer:Preference): void&lt;/span&gt;&lt;/div&gt;&lt;div&gt;&lt;span style=&quot;background-color: initial;&quot;&gt;+&amp;nbsp;&lt;/span&gt;&lt;span style=&quot;background-color: initial;&quot;&gt;displayPreference(prefer:Preference): void&lt;/span&gt;&lt;/div&gt;" style="text;strokeColor=none;fillColor=none;align=left;verticalAlign=top;spacingLeft=4;spacingRight=4;overflow=hidden;rotatable=0;points=[[0,0.5],[1,0.5]];portConstraint=eastwest;whiteSpace=wrap;html=1;" parent="k7wSuXpc-OqHTCkI8A_d-102" vertex="1">
          <mxGeometry y="34" width="260" height="56" as="geometry" />
        </mxCell>
        <mxCell id="k7wSuXpc-OqHTCkI8A_d-105" style="edgeStyle=orthogonalEdgeStyle;rounded=0;orthogonalLoop=1;jettySize=auto;html=1;dashed=1;endArrow=openThin;endFill=0;endSize=12;entryX=1;entryY=0.5;entryDx=0;entryDy=0;exitX=-0.001;exitY=0.288;exitDx=0;exitDy=0;exitPerimeter=0;" parent="WIyWlLk6GJQsqaUBKTNV-1" source="k7wSuXpc-OqHTCkI8A_d-137" target="ceErDbgAxqzRxjVDZLfd-103" edge="1">
          <mxGeometry relative="1" as="geometry">
            <mxPoint x="1347" y="738" as="sourcePoint" />
            <mxPoint x="580" y="530" as="targetPoint" />
            <Array as="points">
              <mxPoint x="740" y="468" />
            </Array>
          </mxGeometry>
        </mxCell>
        <mxCell id="k7wSuXpc-OqHTCkI8A_d-106" value="" style="edgeLabel;html=1;align=center;verticalAlign=middle;resizable=0;points=[];fontStyle=1" parent="k7wSuXpc-OqHTCkI8A_d-105" vertex="1" connectable="0">
          <mxGeometry x="0.2136" y="1" relative="1" as="geometry">
            <mxPoint x="16" y="-11" as="offset" />
          </mxGeometry>
        </mxCell>
        <mxCell id="k7wSuXpc-OqHTCkI8A_d-109" style="edgeStyle=orthogonalEdgeStyle;rounded=0;orthogonalLoop=1;jettySize=auto;html=1;exitX=0;exitY=0.5;exitDx=0;exitDy=0;entryX=0.998;entryY=0.819;entryDx=0;entryDy=0;fontSize=12;startSize=8;endSize=12;dashed=1;endArrow=openThin;endFill=0;entryPerimeter=0;" parent="WIyWlLk6GJQsqaUBKTNV-1" source="k7wSuXpc-OqHTCkI8A_d-47" target="k7wSuXpc-OqHTCkI8A_d-75" edge="1">
          <mxGeometry relative="1" as="geometry">
            <Array as="points">
              <mxPoint x="-500" y="710" />
              <mxPoint x="-570" y="710" />
            </Array>
            <mxPoint x="-630" y="863" as="targetPoint" />
          </mxGeometry>
        </mxCell>
        <mxCell id="k7wSuXpc-OqHTCkI8A_d-110" value="&lt;b&gt;&lt;/b&gt;" style="edgeLabel;html=1;align=center;verticalAlign=middle;resizable=0;points=[];fontSize=12;" parent="k7wSuXpc-OqHTCkI8A_d-109" vertex="1" connectable="0">
          <mxGeometry x="-0.2074" y="2" relative="1" as="geometry">
            <mxPoint y="1" as="offset" />
          </mxGeometry>
        </mxCell>
        <mxCell id="k7wSuXpc-OqHTCkI8A_d-138" style="edgeStyle=orthogonalEdgeStyle;rounded=0;orthogonalLoop=1;jettySize=auto;html=1;dashed=1;endArrow=openThin;endFill=0;endSize=12;" parent="WIyWlLk6GJQsqaUBKTNV-1" edge="1">
          <mxGeometry relative="1" as="geometry">
            <mxPoint x="-311" y="550" as="sourcePoint" />
            <Array as="points">
              <mxPoint x="-310" y="567" />
              <mxPoint x="-310" y="568" />
              <mxPoint x="-311" y="568" />
              <mxPoint x="-311" y="1046" />
              <mxPoint x="360" y="1046" />
            </Array>
            <mxPoint x="360" y="786.97" as="targetPoint" />
          </mxGeometry>
        </mxCell>
        <mxCell id="k7wSuXpc-OqHTCkI8A_d-139" style="edgeStyle=orthogonalEdgeStyle;rounded=0;orthogonalLoop=1;jettySize=auto;html=1;endArrow=blockThin;endFill=0;endSize=12;" parent="WIyWlLk6GJQsqaUBKTNV-1" source="eqaIh_Kuwr5XpTDgUAO9-16" edge="1">
          <mxGeometry relative="1" as="geometry">
            <mxPoint x="-490" y="270" as="targetPoint" />
            <Array as="points">
              <mxPoint x="-510" y="-163" />
              <mxPoint x="-510" y="270" />
            </Array>
          </mxGeometry>
        </mxCell>
        <mxCell id="k7wSuXpc-OqHTCkI8A_d-140" value="" style="endArrow=none;html=1;rounded=0;exitX=1;exitY=0;exitDx=0;exitDy=0;" parent="WIyWlLk6GJQsqaUBKTNV-1" edge="1">
          <mxGeometry width="50" height="50" relative="1" as="geometry">
            <mxPoint x="-580" y="40.69999999999999" as="sourcePoint" />
            <mxPoint x="-510" y="41.19999999999999" as="targetPoint" />
          </mxGeometry>
        </mxCell>
        <mxCell id="eqaIh_Kuwr5XpTDgUAO9-77" style="edgeStyle=orthogonalEdgeStyle;rounded=0;orthogonalLoop=1;jettySize=auto;html=1;dashed=1;endArrow=openThin;endFill=0;endSize=12;" parent="WIyWlLk6GJQsqaUBKTNV-1" source="eqaIh_Kuwr5XpTDgUAO9-33" edge="1">
          <mxGeometry relative="1" as="geometry">
            <mxPoint x="-30" y="483" as="sourcePoint" />
            <mxPoint y="490" as="targetPoint" />
            <Array as="points">
              <mxPoint y="490" />
            </Array>
          </mxGeometry>
        </mxCell>
        <mxCell id="jgWhs5KkmwtUaRcZvf3S-1" style="edgeStyle=orthogonalEdgeStyle;rounded=0;orthogonalLoop=1;jettySize=auto;html=1;exitX=0.5;exitY=1;exitDx=0;exitDy=0;endArrow=blockThin;endFill=0;entryX=0.482;entryY=-0.008;entryDx=0;entryDy=0;entryPerimeter=0;endSize=12;" parent="WIyWlLk6GJQsqaUBKTNV-1" source="k7wSuXpc-OqHTCkI8A_d-40" target="k7wSuXpc-OqHTCkI8A_d-42" edge="1">
          <mxGeometry relative="1" as="geometry">
            <Array as="points">
              <mxPoint x="-95" />
              <mxPoint x="-349" />
            </Array>
            <mxPoint x="-160" y="-17" as="sourcePoint" />
            <mxPoint x="62" y="51" as="targetPoint" />
          </mxGeometry>
        </mxCell>
        <mxCell id="jgWhs5KkmwtUaRcZvf3S-11" value="" style="endArrow=open;endSize=12;dashed=1;html=1;rounded=0;exitX=0.496;exitY=1.054;exitDx=0;exitDy=0;exitPerimeter=0;" parent="WIyWlLk6GJQsqaUBKTNV-1" source="k7wSuXpc-OqHTCkI8A_d-44" edge="1">
          <mxGeometry x="-0.0033" width="160" relative="1" as="geometry">
            <mxPoint x="-220" y="210" as="sourcePoint" />
            <mxPoint x="-346" y="250" as="targetPoint" />
            <mxPoint as="offset" />
          </mxGeometry>
        </mxCell>
        <mxCell id="jgWhs5KkmwtUaRcZvf3S-12" value="" style="endArrow=open;endSize=12;dashed=1;html=1;rounded=0;exitX=0.496;exitY=1.054;exitDx=0;exitDy=0;exitPerimeter=0;entryX=0.344;entryY=-0.001;entryDx=0;entryDy=0;entryPerimeter=0;" parent="WIyWlLk6GJQsqaUBKTNV-1" edge="1">
          <mxGeometry x="-0.0033" width="160" relative="1" as="geometry">
            <mxPoint x="189.32999999999998" y="133" as="sourcePoint" />
            <mxPoint x="189.37999999999994" y="239.87000000000012" as="targetPoint" />
            <mxPoint as="offset" />
          </mxGeometry>
        </mxCell>
        <mxCell id="jgWhs5KkmwtUaRcZvf3S-20" style="edgeStyle=orthogonalEdgeStyle;rounded=0;orthogonalLoop=1;jettySize=auto;html=1;dashed=1;endArrow=openThin;endFill=0;endSize=12;entryX=0.5;entryY=1;entryDx=0;entryDy=0;" parent="WIyWlLk6GJQsqaUBKTNV-1" target="k7wSuXpc-OqHTCkI8A_d-17" edge="1">
          <mxGeometry relative="1" as="geometry">
            <mxPoint x="70" y="590" as="targetPoint" />
            <Array as="points">
              <mxPoint x="113" y="600" />
              <mxPoint x="190" y="600" />
            </Array>
            <mxPoint x="113" y="657" as="sourcePoint" />
          </mxGeometry>
        </mxCell>
        <mxCell id="jgWhs5KkmwtUaRcZvf3S-21" value="" style="edgeLabel;html=1;align=center;verticalAlign=middle;resizable=0;points=[];" parent="jgWhs5KkmwtUaRcZvf3S-20" vertex="1" connectable="0">
          <mxGeometry x="0.3509" y="-1" relative="1" as="geometry">
            <mxPoint x="-165" y="-7" as="offset" />
          </mxGeometry>
        </mxCell>
        <mxCell id="jgWhs5KkmwtUaRcZvf3S-23" style="edgeStyle=orthogonalEdgeStyle;rounded=0;orthogonalLoop=1;jettySize=auto;html=1;dashed=1;endArrow=openThin;endFill=0;endSize=12;entryX=0.005;entryY=0.385;entryDx=0;entryDy=0;entryPerimeter=0;" parent="WIyWlLk6GJQsqaUBKTNV-1" edge="1">
          <mxGeometry relative="1" as="geometry">
            <mxPoint x="-300" y="480" as="sourcePoint" />
            <mxPoint x="-239.20000000000005" y="481.26" as="targetPoint" />
            <Array as="points">
              <mxPoint x="-300" y="481" />
            </Array>
          </mxGeometry>
        </mxCell>
        <mxCell id="jgWhs5KkmwtUaRcZvf3S-26" style="edgeStyle=orthogonalEdgeStyle;rounded=0;orthogonalLoop=1;jettySize=auto;html=1;dashed=1;endArrow=openThin;endFill=0;endSize=12;entryX=0.25;entryY=1;entryDx=0;entryDy=0;" parent="WIyWlLk6GJQsqaUBKTNV-1" target="k7wSuXpc-OqHTCkI8A_d-17" edge="1">
          <mxGeometry relative="1" as="geometry">
            <mxPoint x="240" y="430" as="targetPoint" />
            <Array as="points">
              <mxPoint x="142" y="448" />
            </Array>
            <mxPoint x="142" y="448" as="sourcePoint" />
          </mxGeometry>
        </mxCell>
        <mxCell id="jgWhs5KkmwtUaRcZvf3S-27" value="" style="edgeLabel;html=1;align=center;verticalAlign=middle;resizable=0;points=[];" parent="jgWhs5KkmwtUaRcZvf3S-26" vertex="1" connectable="0">
          <mxGeometry x="0.3509" y="-1" relative="1" as="geometry">
            <mxPoint x="-175" y="-7" as="offset" />
          </mxGeometry>
        </mxCell>
        <mxCell id="jgWhs5KkmwtUaRcZvf3S-28" value="Exhibition" style="swimlane;fontStyle=1;align=center;verticalAlign=top;childLayout=stackLayout;horizontal=1;startSize=26;horizontalStack=0;resizeParent=1;resizeParentMax=0;resizeLast=0;collapsible=1;marginBottom=0;whiteSpace=wrap;html=1;" parent="WIyWlLk6GJQsqaUBKTNV-1" vertex="1">
          <mxGeometry x="-740" y="71" width="160" height="34" as="geometry" />
        </mxCell>
        <mxCell id="jgWhs5KkmwtUaRcZvf3S-29" value="" style="line;strokeWidth=1;fillColor=none;align=left;verticalAlign=middle;spacingTop=-1;spacingLeft=3;spacingRight=3;rotatable=0;labelPosition=right;points=[];portConstraint=eastwest;strokeColor=inherit;" parent="jgWhs5KkmwtUaRcZvf3S-28" vertex="1">
          <mxGeometry y="26" width="160" height="8" as="geometry" />
        </mxCell>
        <mxCell id="jgWhs5KkmwtUaRcZvf3S-30" value="" style="endArrow=none;html=1;rounded=0;exitX=1;exitY=0;exitDx=0;exitDy=0;" parent="WIyWlLk6GJQsqaUBKTNV-1" edge="1">
          <mxGeometry width="50" height="50" relative="1" as="geometry">
            <mxPoint x="-580" y="87.57" as="sourcePoint" />
            <mxPoint x="-510" y="88.07" as="targetPoint" />
          </mxGeometry>
        </mxCell>
        <mxCell id="emebHx1RxWuF_3HbTOJc-5" style="edgeStyle=orthogonalEdgeStyle;rounded=0;orthogonalLoop=1;jettySize=auto;html=1;endArrow=none;endFill=0;" parent="WIyWlLk6GJQsqaUBKTNV-1" edge="1">
          <mxGeometry relative="1" as="geometry">
            <mxPoint x="-560" y="280" as="targetPoint" />
            <Array as="points">
              <mxPoint x="-720" y="280" />
              <mxPoint x="-490" y="280" />
            </Array>
            <mxPoint x="-720" y="251" as="sourcePoint" />
          </mxGeometry>
        </mxCell>
        <mxCell id="emebHx1RxWuF_3HbTOJc-2" value="&lt;div&gt;ShowFactory&lt;/div&gt;" style="swimlane;fontStyle=1;align=center;verticalAlign=top;childLayout=stackLayout;horizontal=1;startSize=30;horizontalStack=0;resizeParent=1;resizeParentMax=0;resizeLast=0;collapsible=1;marginBottom=0;whiteSpace=wrap;html=1;fillColor=#dae8fc;strokeColor=#6c8ebf;" parent="WIyWlLk6GJQsqaUBKTNV-1" vertex="1">
          <mxGeometry x="-730" y="151" width="150" height="100" as="geometry" />
        </mxCell>
        <mxCell id="emebHx1RxWuF_3HbTOJc-3" value="" style="line;strokeWidth=1;fillColor=none;align=left;verticalAlign=middle;spacingTop=-1;spacingLeft=3;spacingRight=3;rotatable=0;labelPosition=right;points=[];portConstraint=eastwest;strokeColor=inherit;" parent="emebHx1RxWuF_3HbTOJc-2" vertex="1">
          <mxGeometry y="30" width="150" height="8" as="geometry" />
        </mxCell>
        <mxCell id="emebHx1RxWuF_3HbTOJc-4" value="+ createCast() : cast&lt;div&gt;+ createHost() : host&lt;/div&gt;&lt;div&gt;+ createArtist() : artist&lt;/div&gt;" style="text;strokeColor=none;fillColor=none;align=left;verticalAlign=top;spacingLeft=4;spacingRight=4;overflow=hidden;rotatable=0;points=[[0,0.5],[1,0.5]];portConstraint=eastwest;whiteSpace=wrap;html=1;" parent="emebHx1RxWuF_3HbTOJc-2" vertex="1">
          <mxGeometry y="38" width="150" height="62" as="geometry" />
        </mxCell>
        <mxCell id="emebHx1RxWuF_3HbTOJc-28" style="edgeStyle=orthogonalEdgeStyle;rounded=0;orthogonalLoop=1;jettySize=auto;html=1;endArrow=none;endFill=0;dashed=1;" parent="WIyWlLk6GJQsqaUBKTNV-1" source="emebHx1RxWuF_3HbTOJc-8" edge="1">
          <mxGeometry relative="1" as="geometry">
            <mxPoint x="-800" y="30" as="targetPoint" />
            <Array as="points">
              <mxPoint x="-800" y="19" />
            </Array>
          </mxGeometry>
        </mxCell>
        <mxCell id="emebHx1RxWuF_3HbTOJc-8" value="&lt;div&gt;Artist&lt;/div&gt;" style="swimlane;fontStyle=1;align=center;verticalAlign=top;childLayout=stackLayout;horizontal=1;startSize=30;horizontalStack=0;resizeParent=1;resizeParentMax=0;resizeLast=0;collapsible=1;marginBottom=0;whiteSpace=wrap;html=1;fillColor=#dae8fc;strokeColor=#6c8ebf;" parent="WIyWlLk6GJQsqaUBKTNV-1" vertex="1">
          <mxGeometry x="-980" width="120" height="38" as="geometry" />
        </mxCell>
        <mxCell id="emebHx1RxWuF_3HbTOJc-9" value="" style="line;strokeWidth=1;fillColor=#dae8fc;align=left;verticalAlign=middle;spacingTop=-1;spacingLeft=3;spacingRight=3;rotatable=0;labelPosition=right;points=[];portConstraint=eastwest;strokeColor=#6c8ebf;" parent="emebHx1RxWuF_3HbTOJc-8" vertex="1">
          <mxGeometry y="30" width="120" height="8" as="geometry" />
        </mxCell>
        <mxCell id="emebHx1RxWuF_3HbTOJc-27" style="edgeStyle=orthogonalEdgeStyle;rounded=0;orthogonalLoop=1;jettySize=auto;html=1;dashed=1;endArrow=none;endFill=0;" parent="WIyWlLk6GJQsqaUBKTNV-1" edge="1">
          <mxGeometry relative="1" as="geometry">
            <mxPoint x="-800" y="-132.57999999999998" as="targetPoint" />
            <mxPoint x="-860" y="-132.57999999999998" as="sourcePoint" />
            <Array as="points">
              <mxPoint x="-830" y="-132.57999999999998" />
              <mxPoint x="-830" y="-132.57999999999998" />
            </Array>
          </mxGeometry>
        </mxCell>
        <mxCell id="emebHx1RxWuF_3HbTOJc-11" value="&lt;div&gt;Cast&lt;/div&gt;" style="swimlane;fontStyle=1;align=center;verticalAlign=top;childLayout=stackLayout;horizontal=1;startSize=30;horizontalStack=0;resizeParent=1;resizeParentMax=0;resizeLast=0;collapsible=1;marginBottom=0;whiteSpace=wrap;html=1;fillColor=#dae8fc;strokeColor=#6c8ebf;" parent="WIyWlLk6GJQsqaUBKTNV-1" vertex="1">
          <mxGeometry x="-980" y="-151.5" width="120" height="38" as="geometry" />
        </mxCell>
        <mxCell id="emebHx1RxWuF_3HbTOJc-12" value="" style="line;strokeWidth=1;fillColor=#dae8fc;align=left;verticalAlign=middle;spacingTop=-1;spacingLeft=3;spacingRight=3;rotatable=0;labelPosition=right;points=[];portConstraint=eastwest;strokeColor=#6c8ebf;" parent="emebHx1RxWuF_3HbTOJc-11" vertex="1">
          <mxGeometry y="30" width="120" height="8" as="geometry" />
        </mxCell>
        <mxCell id="emebHx1RxWuF_3HbTOJc-21" style="edgeStyle=orthogonalEdgeStyle;rounded=0;orthogonalLoop=1;jettySize=auto;html=1;entryX=0;entryY=0.5;entryDx=0;entryDy=0;dashed=1;endArrow=open;endFill=0;" parent="WIyWlLk6GJQsqaUBKTNV-1" source="emebHx1RxWuF_3HbTOJc-14" target="eqaIh_Kuwr5XpTDgUAO9-22" edge="1">
          <mxGeometry relative="1" as="geometry" />
        </mxCell>
        <mxCell id="emebHx1RxWuF_3HbTOJc-22" style="edgeStyle=orthogonalEdgeStyle;rounded=0;orthogonalLoop=1;jettySize=auto;html=1;entryX=0;entryY=0.5;entryDx=0;entryDy=0;dashed=1;endArrow=open;endFill=0;" parent="WIyWlLk6GJQsqaUBKTNV-1" source="emebHx1RxWuF_3HbTOJc-14" target="eqaIh_Kuwr5XpTDgUAO9-16" edge="1">
          <mxGeometry relative="1" as="geometry" />
        </mxCell>
        <mxCell id="emebHx1RxWuF_3HbTOJc-23" style="edgeStyle=orthogonalEdgeStyle;rounded=0;orthogonalLoop=1;jettySize=auto;html=1;entryX=0;entryY=0.5;entryDx=0;entryDy=0;dashed=1;endArrow=open;endFill=0;" parent="WIyWlLk6GJQsqaUBKTNV-1" source="emebHx1RxWuF_3HbTOJc-14" target="eqaIh_Kuwr5XpTDgUAO9-20" edge="1">
          <mxGeometry relative="1" as="geometry" />
        </mxCell>
        <mxCell id="emebHx1RxWuF_3HbTOJc-24" style="edgeStyle=orthogonalEdgeStyle;rounded=0;orthogonalLoop=1;jettySize=auto;html=1;entryX=0;entryY=0.5;entryDx=0;entryDy=0;dashed=1;endArrow=open;endFill=0;" parent="WIyWlLk6GJQsqaUBKTNV-1" source="emebHx1RxWuF_3HbTOJc-14" target="jgWhs5KkmwtUaRcZvf3S-28" edge="1">
          <mxGeometry relative="1" as="geometry" />
        </mxCell>
        <mxCell id="emebHx1RxWuF_3HbTOJc-26" style="edgeStyle=orthogonalEdgeStyle;rounded=0;orthogonalLoop=1;jettySize=auto;html=1;entryX=0;entryY=0.5;entryDx=0;entryDy=0;dashed=1;endArrow=open;endFill=0;" parent="WIyWlLk6GJQsqaUBKTNV-1" source="emebHx1RxWuF_3HbTOJc-14" target="eqaIh_Kuwr5XpTDgUAO9-24" edge="1">
          <mxGeometry relative="1" as="geometry" />
        </mxCell>
        <mxCell id="emebHx1RxWuF_3HbTOJc-14" value="&lt;div&gt;Host&lt;/div&gt;" style="swimlane;fontStyle=1;align=center;verticalAlign=top;childLayout=stackLayout;horizontal=1;startSize=30;horizontalStack=0;resizeParent=1;resizeParentMax=0;resizeLast=0;collapsible=1;marginBottom=0;whiteSpace=wrap;html=1;fillColor=#dae8fc;strokeColor=#6c8ebf;" parent="WIyWlLk6GJQsqaUBKTNV-1" vertex="1">
          <mxGeometry x="-980" y="-77.5" width="120" height="38" as="geometry" />
        </mxCell>
        <mxCell id="emebHx1RxWuF_3HbTOJc-15" value="" style="line;strokeWidth=1;fillColor=#dae8fc;align=left;verticalAlign=middle;spacingTop=-1;spacingLeft=3;spacingRight=3;rotatable=0;labelPosition=right;points=[];portConstraint=eastwest;strokeColor=#6c8ebf;" parent="emebHx1RxWuF_3HbTOJc-14" vertex="1">
          <mxGeometry y="30" width="120" height="8" as="geometry" />
        </mxCell>
        <mxCell id="emebHx1RxWuF_3HbTOJc-17" style="edgeStyle=orthogonalEdgeStyle;rounded=0;orthogonalLoop=1;jettySize=auto;html=1;endArrow=blockThin;endFill=0;endSize=12;entryX=0;entryY=0.5;entryDx=0;entryDy=0;exitX=-0.003;exitY=0.41;exitDx=0;exitDy=0;exitPerimeter=0;" parent="WIyWlLk6GJQsqaUBKTNV-1" source="emebHx1RxWuF_3HbTOJc-4" target="emebHx1RxWuF_3HbTOJc-11" edge="1">
          <mxGeometry relative="1" as="geometry">
            <mxPoint x="-1087" y="-170.99999999999977" as="targetPoint" />
            <Array as="points">
              <mxPoint x="-1020" y="214" />
              <mxPoint x="-1020" y="-132" />
            </Array>
            <mxPoint x="-800" y="214" as="sourcePoint" />
          </mxGeometry>
        </mxCell>
        <mxCell id="emebHx1RxWuF_3HbTOJc-20" value="" style="endArrow=blockThin;html=1;rounded=0;endFill=0;endSize=12;entryX=0;entryY=0.5;entryDx=0;entryDy=0;fillColor=#dae8fc;strokeColor=#6c8ebf;" parent="WIyWlLk6GJQsqaUBKTNV-1" target="emebHx1RxWuF_3HbTOJc-8" edge="1">
          <mxGeometry width="50" height="50" relative="1" as="geometry">
            <mxPoint x="-1020" y="19" as="sourcePoint" />
            <mxPoint x="-990" y="28.5" as="targetPoint" />
            <Array as="points" />
          </mxGeometry>
        </mxCell>
        <mxCell id="emebHx1RxWuF_3HbTOJc-29" value="" style="endArrow=blockThin;html=1;rounded=0;entryX=0;entryY=0.75;entryDx=0;entryDy=0;endFill=0;endSize=12;fillColor=#dae8fc;strokeColor=#6c8ebf;" parent="WIyWlLk6GJQsqaUBKTNV-1" edge="1">
          <mxGeometry width="50" height="50" relative="1" as="geometry">
            <mxPoint x="-1020" y="-60.760000000000005" as="sourcePoint" />
            <mxPoint x="-980" y="-60.760000000000005" as="targetPoint" />
            <Array as="points" />
          </mxGeometry>
        </mxCell>
        <mxCell id="emebHx1RxWuF_3HbTOJc-35" value="&amp;lt;&amp;lt;Interface&amp;gt;&amp;gt;&lt;div&gt;ReviewIterator&lt;/div&gt;" style="swimlane;fontStyle=1;align=center;verticalAlign=top;childLayout=stackLayout;horizontal=1;startSize=40;horizontalStack=0;resizeParent=1;resizeParentMax=0;resizeLast=0;collapsible=1;marginBottom=0;whiteSpace=wrap;html=1;fillColor=#dae8fc;strokeColor=#6c8ebf;" parent="WIyWlLk6GJQsqaUBKTNV-1" vertex="1">
          <mxGeometry x="185" y="1063" width="145" height="100" as="geometry" />
        </mxCell>
        <mxCell id="emebHx1RxWuF_3HbTOJc-36" value="&lt;div&gt;&lt;br&gt;&lt;/div&gt;&lt;div&gt;&lt;br&gt;&lt;/div&gt;" style="text;strokeColor=none;fillColor=none;align=left;verticalAlign=top;spacingLeft=4;spacingRight=4;overflow=hidden;rotatable=0;points=[[0,0.5],[1,0.5]];portConstraint=eastwest;whiteSpace=wrap;html=1;" parent="emebHx1RxWuF_3HbTOJc-35" vertex="1">
          <mxGeometry y="40" width="145" as="geometry" />
        </mxCell>
        <mxCell id="emebHx1RxWuF_3HbTOJc-37" value="" style="line;strokeWidth=1;fillColor=none;align=left;verticalAlign=middle;spacingTop=-1;spacingLeft=3;spacingRight=3;rotatable=0;labelPosition=right;points=[];portConstraint=eastwest;strokeColor=inherit;" parent="emebHx1RxWuF_3HbTOJc-35" vertex="1">
          <mxGeometry y="40" width="145" height="8" as="geometry" />
        </mxCell>
        <mxCell id="emebHx1RxWuF_3HbTOJc-38" value="+hasNext() : boolean&lt;div&gt;+ next() : Review&lt;/div&gt;" style="text;strokeColor=none;fillColor=none;align=left;verticalAlign=top;spacingLeft=4;spacingRight=4;overflow=hidden;rotatable=0;points=[[0,0.5],[1,0.5]];portConstraint=eastwest;whiteSpace=wrap;html=1;" parent="emebHx1RxWuF_3HbTOJc-35" vertex="1">
          <mxGeometry y="48" width="145" height="52" as="geometry" />
        </mxCell>
        <mxCell id="emebHx1RxWuF_3HbTOJc-48" style="edgeStyle=orthogonalEdgeStyle;rounded=0;orthogonalLoop=1;jettySize=auto;html=1;entryX=0.5;entryY=0;entryDx=0;entryDy=0;" parent="WIyWlLk6GJQsqaUBKTNV-1" edge="1">
          <mxGeometry relative="1" as="geometry">
            <mxPoint x="-179.99999999999977" y="922.5" as="sourcePoint" />
            <mxPoint x="-180.00000000000023" y="950" as="targetPoint" />
          </mxGeometry>
        </mxCell>
        <mxCell id="emebHx1RxWuF_3HbTOJc-49" style="edgeStyle=orthogonalEdgeStyle;rounded=0;orthogonalLoop=1;jettySize=auto;html=1;endArrow=block;endFill=1;endSize=12;entryX=0;entryY=0.563;entryDx=0;entryDy=0;entryPerimeter=0;" parent="WIyWlLk6GJQsqaUBKTNV-1" target="k7wSuXpc-OqHTCkI8A_d-80" edge="1">
          <mxGeometry relative="1" as="geometry">
            <Array as="points">
              <mxPoint x="-60" y="903" />
              <mxPoint x="-60" y="950" />
            </Array>
            <mxPoint x="-100.00000000000023" y="902.521739130435" as="sourcePoint" />
            <mxPoint x="-30" y="950" as="targetPoint" />
          </mxGeometry>
        </mxCell>
        <mxCell id="emebHx1RxWuF_3HbTOJc-51" value="" style="endArrow=none;html=1;rounded=0;exitX=1.014;exitY=0.456;exitDx=0;exitDy=0;exitPerimeter=0;" parent="WIyWlLk6GJQsqaUBKTNV-1" edge="1">
          <mxGeometry width="50" height="50" relative="1" as="geometry">
            <mxPoint x="-99.99999999999999" y="986.9440000000004" as="sourcePoint" />
            <mxPoint x="-60" y="930" as="targetPoint" />
            <Array as="points">
              <mxPoint x="-60" y="987" />
            </Array>
          </mxGeometry>
        </mxCell>
        <mxCell id="ceErDbgAxqzRxjVDZLfd-2" value="WalkingPathFinder" style="swimlane;fontStyle=1;align=center;verticalAlign=top;childLayout=stackLayout;horizontal=1;startSize=26;horizontalStack=0;resizeParent=1;resizeLast=0;collapsible=1;marginBottom=0;rounded=0;shadow=0;strokeWidth=1;fillColor=#dae8fc;strokeColor=#6c8ebf;" parent="WIyWlLk6GJQsqaUBKTNV-1" vertex="1">
          <mxGeometry x="-796" y="903" width="227" height="60" as="geometry">
            <mxRectangle x="230" y="140" width="160" height="26" as="alternateBounds" />
          </mxGeometry>
        </mxCell>
        <mxCell id="ceErDbgAxqzRxjVDZLfd-3" value="" style="line;html=1;strokeWidth=1;align=left;verticalAlign=middle;spacingTop=-1;spacingLeft=3;spacingRight=3;rotatable=0;labelPosition=right;points=[];portConstraint=eastwest;" parent="ceErDbgAxqzRxjVDZLfd-2" vertex="1">
          <mxGeometry y="26" width="227" height="8" as="geometry" />
        </mxCell>
        <mxCell id="ceErDbgAxqzRxjVDZLfd-4" value="+ createAlgorithm(): WalkingAlgorithm" style="text;align=left;verticalAlign=top;spacingLeft=4;spacingRight=4;overflow=hidden;rotatable=0;points=[[0,0.5],[1,0.5]];portConstraint=eastwest;" parent="ceErDbgAxqzRxjVDZLfd-2" vertex="1">
          <mxGeometry y="34" width="227" height="26" as="geometry" />
        </mxCell>
        <mxCell id="ceErDbgAxqzRxjVDZLfd-18" style="edgeStyle=orthogonalEdgeStyle;rounded=0;orthogonalLoop=1;jettySize=auto;html=1;exitX=1;exitY=0.5;exitDx=0;exitDy=0;endArrow=none;endFill=0;" parent="WIyWlLk6GJQsqaUBKTNV-1" source="ceErDbgAxqzRxjVDZLfd-5" edge="1">
          <mxGeometry relative="1" as="geometry">
            <mxPoint x="-479" y="933" as="targetPoint" />
            <Array as="points">
              <mxPoint x="-480" y="1033" />
              <mxPoint x="-480" y="933" />
            </Array>
          </mxGeometry>
        </mxCell>
        <mxCell id="ceErDbgAxqzRxjVDZLfd-5" value="BusPathFinder" style="swimlane;fontStyle=1;align=center;verticalAlign=top;childLayout=stackLayout;horizontal=1;startSize=26;horizontalStack=0;resizeParent=1;resizeLast=0;collapsible=1;marginBottom=0;rounded=0;shadow=0;strokeWidth=1;fillColor=#dae8fc;strokeColor=#6c8ebf;" parent="WIyWlLk6GJQsqaUBKTNV-1" vertex="1">
          <mxGeometry x="-796" y="1003" width="227" height="60" as="geometry">
            <mxRectangle x="230" y="140" width="160" height="26" as="alternateBounds" />
          </mxGeometry>
        </mxCell>
        <mxCell id="ceErDbgAxqzRxjVDZLfd-6" value="" style="line;html=1;strokeWidth=1;align=left;verticalAlign=middle;spacingTop=-1;spacingLeft=3;spacingRight=3;rotatable=0;labelPosition=right;points=[];portConstraint=eastwest;" parent="ceErDbgAxqzRxjVDZLfd-5" vertex="1">
          <mxGeometry y="26" width="227" height="8" as="geometry" />
        </mxCell>
        <mxCell id="ceErDbgAxqzRxjVDZLfd-7" value="+ createAlgorithm(): BusAlgorithm" style="text;align=left;verticalAlign=top;spacingLeft=4;spacingRight=4;overflow=hidden;rotatable=0;points=[[0,0.5],[1,0.5]];portConstraint=eastwest;" parent="ceErDbgAxqzRxjVDZLfd-5" vertex="1">
          <mxGeometry y="34" width="227" height="26" as="geometry" />
        </mxCell>
        <mxCell id="ceErDbgAxqzRxjVDZLfd-8" value="MixedPathFinder" style="swimlane;fontStyle=1;align=center;verticalAlign=top;childLayout=stackLayout;horizontal=1;startSize=26;horizontalStack=0;resizeParent=1;resizeLast=0;collapsible=1;marginBottom=0;rounded=0;shadow=0;strokeWidth=1;fillColor=#dae8fc;strokeColor=#6c8ebf;" parent="WIyWlLk6GJQsqaUBKTNV-1" vertex="1">
          <mxGeometry x="-796" y="1103" width="227" height="60" as="geometry">
            <mxRectangle x="230" y="140" width="160" height="26" as="alternateBounds" />
          </mxGeometry>
        </mxCell>
        <mxCell id="ceErDbgAxqzRxjVDZLfd-9" value="" style="line;html=1;strokeWidth=1;align=left;verticalAlign=middle;spacingTop=-1;spacingLeft=3;spacingRight=3;rotatable=0;labelPosition=right;points=[];portConstraint=eastwest;" parent="ceErDbgAxqzRxjVDZLfd-8" vertex="1">
          <mxGeometry y="26" width="227" height="8" as="geometry" />
        </mxCell>
        <mxCell id="ceErDbgAxqzRxjVDZLfd-10" value="+ createAlgorithm(): MixedAlgorithm" style="text;align=left;verticalAlign=top;spacingLeft=4;spacingRight=4;overflow=hidden;rotatable=0;points=[[0,0.5],[1,0.5]];portConstraint=eastwest;" parent="ceErDbgAxqzRxjVDZLfd-8" vertex="1">
          <mxGeometry y="34" width="227" height="26" as="geometry" />
        </mxCell>
        <mxCell id="ceErDbgAxqzRxjVDZLfd-11" value="SubwayPathFinder" style="swimlane;fontStyle=1;align=center;verticalAlign=top;childLayout=stackLayout;horizontal=1;startSize=26;horizontalStack=0;resizeParent=1;resizeLast=0;collapsible=1;marginBottom=0;rounded=0;shadow=0;strokeWidth=1;fillColor=#dae8fc;strokeColor=#6c8ebf;" parent="WIyWlLk6GJQsqaUBKTNV-1" vertex="1">
          <mxGeometry x="-796" y="1203" width="227" height="60" as="geometry">
            <mxRectangle x="230" y="140" width="160" height="26" as="alternateBounds" />
          </mxGeometry>
        </mxCell>
        <mxCell id="ceErDbgAxqzRxjVDZLfd-12" value="" style="line;html=1;strokeWidth=1;align=left;verticalAlign=middle;spacingTop=-1;spacingLeft=3;spacingRight=3;rotatable=0;labelPosition=right;points=[];portConstraint=eastwest;" parent="ceErDbgAxqzRxjVDZLfd-11" vertex="1">
          <mxGeometry y="26" width="227" height="8" as="geometry" />
        </mxCell>
        <mxCell id="ceErDbgAxqzRxjVDZLfd-13" value="+ createAlgorithm(): SubwayAlgorithm" style="text;align=left;verticalAlign=top;spacingLeft=4;spacingRight=4;overflow=hidden;rotatable=0;points=[[0,0.5],[1,0.5]];portConstraint=eastwest;" parent="ceErDbgAxqzRxjVDZLfd-11" vertex="1">
          <mxGeometry y="34" width="227" height="26" as="geometry" />
        </mxCell>
        <mxCell id="ceErDbgAxqzRxjVDZLfd-16" style="edgeStyle=orthogonalEdgeStyle;rounded=0;orthogonalLoop=1;jettySize=auto;html=1;endArrow=blockThin;endFill=0;exitX=1.002;exitY=-0.192;exitDx=0;exitDy=0;endSize=12;exitPerimeter=0;entryX=0.122;entryY=1.039;entryDx=0;entryDy=0;entryPerimeter=0;" parent="WIyWlLk6GJQsqaUBKTNV-1" source="ceErDbgAxqzRxjVDZLfd-4" target="k7wSuXpc-OqHTCkI8A_d-49" edge="1">
          <mxGeometry relative="1" as="geometry">
            <Array as="points">
              <mxPoint x="-481" y="932" />
            </Array>
            <mxPoint x="-500" y="890" as="sourcePoint" />
            <mxPoint x="-480" y="810" as="targetPoint" />
          </mxGeometry>
        </mxCell>
        <mxCell id="ceErDbgAxqzRxjVDZLfd-22" style="edgeStyle=orthogonalEdgeStyle;rounded=0;orthogonalLoop=1;jettySize=auto;html=1;exitX=1;exitY=0.5;exitDx=0;exitDy=0;endArrow=none;endFill=0;" parent="WIyWlLk6GJQsqaUBKTNV-1" edge="1">
          <mxGeometry relative="1" as="geometry">
            <mxPoint x="-479" y="1033" as="targetPoint" />
            <mxPoint x="-629" y="1133" as="sourcePoint" />
            <Array as="points">
              <mxPoint x="-480" y="1133" />
              <mxPoint x="-480" y="1033" />
            </Array>
          </mxGeometry>
        </mxCell>
        <mxCell id="ceErDbgAxqzRxjVDZLfd-23" style="edgeStyle=orthogonalEdgeStyle;rounded=0;orthogonalLoop=1;jettySize=auto;html=1;exitX=1;exitY=0.5;exitDx=0;exitDy=0;endArrow=none;endFill=0;" parent="WIyWlLk6GJQsqaUBKTNV-1" edge="1">
          <mxGeometry relative="1" as="geometry">
            <mxPoint x="-479" y="1133" as="targetPoint" />
            <mxPoint x="-629" y="1233" as="sourcePoint" />
            <Array as="points">
              <mxPoint x="-480" y="1233" />
              <mxPoint x="-480" y="1133" />
            </Array>
          </mxGeometry>
        </mxCell>
        <mxCell id="ceErDbgAxqzRxjVDZLfd-24" value="WalkingAlgorithm" style="swimlane;fontStyle=1;align=center;verticalAlign=top;childLayout=stackLayout;horizontal=1;startSize=26;horizontalStack=0;resizeParent=1;resizeLast=0;collapsible=1;marginBottom=0;rounded=0;shadow=0;strokeWidth=1;fillColor=#dae8fc;strokeColor=#6c8ebf;" parent="WIyWlLk6GJQsqaUBKTNV-1" vertex="1">
          <mxGeometry x="-1120" y="903" width="268" height="60" as="geometry">
            <mxRectangle x="230" y="140" width="160" height="26" as="alternateBounds" />
          </mxGeometry>
        </mxCell>
        <mxCell id="ceErDbgAxqzRxjVDZLfd-25" value="" style="line;html=1;strokeWidth=1;align=left;verticalAlign=middle;spacingTop=-1;spacingLeft=3;spacingRight=3;rotatable=0;labelPosition=right;points=[];portConstraint=eastwest;" parent="ceErDbgAxqzRxjVDZLfd-24" vertex="1">
          <mxGeometry y="26" width="268" height="8" as="geometry" />
        </mxCell>
        <mxCell id="ceErDbgAxqzRxjVDZLfd-26" value="+findPath(start: Location, end: Location): Path" style="text;align=left;verticalAlign=top;spacingLeft=4;spacingRight=4;overflow=hidden;rotatable=0;points=[[0,0.5],[1,0.5]];portConstraint=eastwest;" parent="ceErDbgAxqzRxjVDZLfd-24" vertex="1">
          <mxGeometry y="34" width="268" height="26" as="geometry" />
        </mxCell>
        <mxCell id="ceErDbgAxqzRxjVDZLfd-27" value="BusAlgorithm" style="swimlane;fontStyle=1;align=center;verticalAlign=top;childLayout=stackLayout;horizontal=1;startSize=26;horizontalStack=0;resizeParent=1;resizeLast=0;collapsible=1;marginBottom=0;rounded=0;shadow=0;strokeWidth=1;fillColor=#dae8fc;strokeColor=#6c8ebf;" parent="WIyWlLk6GJQsqaUBKTNV-1" vertex="1">
          <mxGeometry x="-1120" y="1003" width="268" height="60" as="geometry">
            <mxRectangle x="230" y="140" width="160" height="26" as="alternateBounds" />
          </mxGeometry>
        </mxCell>
        <mxCell id="ceErDbgAxqzRxjVDZLfd-28" value="" style="line;html=1;strokeWidth=1;align=left;verticalAlign=middle;spacingTop=-1;spacingLeft=3;spacingRight=3;rotatable=0;labelPosition=right;points=[];portConstraint=eastwest;" parent="ceErDbgAxqzRxjVDZLfd-27" vertex="1">
          <mxGeometry y="26" width="268" height="8" as="geometry" />
        </mxCell>
        <mxCell id="ceErDbgAxqzRxjVDZLfd-29" value="+findPath(start: Location, end: Location): Path" style="text;align=left;verticalAlign=top;spacingLeft=4;spacingRight=4;overflow=hidden;rotatable=0;points=[[0,0.5],[1,0.5]];portConstraint=eastwest;" parent="ceErDbgAxqzRxjVDZLfd-27" vertex="1">
          <mxGeometry y="34" width="268" height="26" as="geometry" />
        </mxCell>
        <mxCell id="ceErDbgAxqzRxjVDZLfd-30" value="MixedAlgorithm" style="swimlane;fontStyle=1;align=center;verticalAlign=top;childLayout=stackLayout;horizontal=1;startSize=26;horizontalStack=0;resizeParent=1;resizeLast=0;collapsible=1;marginBottom=0;rounded=0;shadow=0;strokeWidth=1;fillColor=#dae8fc;strokeColor=#6c8ebf;" parent="WIyWlLk6GJQsqaUBKTNV-1" vertex="1">
          <mxGeometry x="-1120" y="1103" width="268" height="60" as="geometry">
            <mxRectangle x="230" y="140" width="160" height="26" as="alternateBounds" />
          </mxGeometry>
        </mxCell>
        <mxCell id="ceErDbgAxqzRxjVDZLfd-31" value="" style="line;html=1;strokeWidth=1;align=left;verticalAlign=middle;spacingTop=-1;spacingLeft=3;spacingRight=3;rotatable=0;labelPosition=right;points=[];portConstraint=eastwest;" parent="ceErDbgAxqzRxjVDZLfd-30" vertex="1">
          <mxGeometry y="26" width="268" height="8" as="geometry" />
        </mxCell>
        <mxCell id="ceErDbgAxqzRxjVDZLfd-32" value="+findPath(start: Location, end: Location): Path" style="text;align=left;verticalAlign=top;spacingLeft=4;spacingRight=4;overflow=hidden;rotatable=0;points=[[0,0.5],[1,0.5]];portConstraint=eastwest;" parent="ceErDbgAxqzRxjVDZLfd-30" vertex="1">
          <mxGeometry y="34" width="268" height="26" as="geometry" />
        </mxCell>
        <mxCell id="ceErDbgAxqzRxjVDZLfd-33" value="SubwayAlgorithm" style="swimlane;fontStyle=1;align=center;verticalAlign=top;childLayout=stackLayout;horizontal=1;startSize=26;horizontalStack=0;resizeParent=1;resizeLast=0;collapsible=1;marginBottom=0;rounded=0;shadow=0;strokeWidth=1;fillColor=#dae8fc;strokeColor=#6c8ebf;" parent="WIyWlLk6GJQsqaUBKTNV-1" vertex="1">
          <mxGeometry x="-1120" y="1203" width="268" height="60" as="geometry">
            <mxRectangle x="230" y="140" width="160" height="26" as="alternateBounds" />
          </mxGeometry>
        </mxCell>
        <mxCell id="ceErDbgAxqzRxjVDZLfd-34" value="" style="line;html=1;strokeWidth=1;align=left;verticalAlign=middle;spacingTop=-1;spacingLeft=3;spacingRight=3;rotatable=0;labelPosition=right;points=[];portConstraint=eastwest;" parent="ceErDbgAxqzRxjVDZLfd-33" vertex="1">
          <mxGeometry y="26" width="268" height="8" as="geometry" />
        </mxCell>
        <mxCell id="ceErDbgAxqzRxjVDZLfd-35" value="+findPath(start: Location, end: Location): Path" style="text;align=left;verticalAlign=top;spacingLeft=4;spacingRight=4;overflow=hidden;rotatable=0;points=[[0,0.5],[1,0.5]];portConstraint=eastwest;" parent="ceErDbgAxqzRxjVDZLfd-33" vertex="1">
          <mxGeometry y="34" width="268" height="26" as="geometry" />
        </mxCell>
        <mxCell id="ceErDbgAxqzRxjVDZLfd-39" style="edgeStyle=orthogonalEdgeStyle;rounded=0;orthogonalLoop=1;jettySize=auto;html=1;fontSize=12;startSize=8;endSize=12;dashed=1;endArrow=openThin;endFill=0;exitX=-0.002;exitY=0.206;exitDx=0;exitDy=0;exitPerimeter=0;" parent="WIyWlLk6GJQsqaUBKTNV-1" edge="1">
          <mxGeometry relative="1" as="geometry">
            <Array as="points">
              <mxPoint x="-822" y="1032.5" />
            </Array>
            <mxPoint x="-852" y="1033.5" as="targetPoint" />
            <mxPoint x="-799" y="1032.5" as="sourcePoint" />
          </mxGeometry>
        </mxCell>
        <mxCell id="ceErDbgAxqzRxjVDZLfd-40" value="&lt;b&gt;&lt;/b&gt;" style="edgeLabel;html=1;align=center;verticalAlign=middle;resizable=0;points=[];fontSize=12;" parent="ceErDbgAxqzRxjVDZLfd-39" vertex="1" connectable="0">
          <mxGeometry x="-0.2074" y="2" relative="1" as="geometry">
            <mxPoint y="1" as="offset" />
          </mxGeometry>
        </mxCell>
        <mxCell id="ceErDbgAxqzRxjVDZLfd-41" style="edgeStyle=orthogonalEdgeStyle;rounded=0;orthogonalLoop=1;jettySize=auto;html=1;fontSize=12;startSize=8;endSize=12;dashed=1;endArrow=openThin;endFill=0;exitX=-0.002;exitY=0.206;exitDx=0;exitDy=0;exitPerimeter=0;" parent="WIyWlLk6GJQsqaUBKTNV-1" edge="1">
          <mxGeometry relative="1" as="geometry">
            <Array as="points">
              <mxPoint x="-822" y="1132.5" />
            </Array>
            <mxPoint x="-852" y="1133.5" as="targetPoint" />
            <mxPoint x="-799" y="1132.5" as="sourcePoint" />
          </mxGeometry>
        </mxCell>
        <mxCell id="ceErDbgAxqzRxjVDZLfd-42" value="&lt;b&gt;&lt;/b&gt;" style="edgeLabel;html=1;align=center;verticalAlign=middle;resizable=0;points=[];fontSize=12;" parent="ceErDbgAxqzRxjVDZLfd-41" vertex="1" connectable="0">
          <mxGeometry x="-0.2074" y="2" relative="1" as="geometry">
            <mxPoint y="1" as="offset" />
          </mxGeometry>
        </mxCell>
        <mxCell id="ceErDbgAxqzRxjVDZLfd-43" style="edgeStyle=orthogonalEdgeStyle;rounded=0;orthogonalLoop=1;jettySize=auto;html=1;fontSize=12;startSize=8;endSize=12;dashed=1;endArrow=openThin;endFill=0;exitX=-0.002;exitY=0.206;exitDx=0;exitDy=0;exitPerimeter=0;" parent="WIyWlLk6GJQsqaUBKTNV-1" edge="1">
          <mxGeometry relative="1" as="geometry">
            <Array as="points">
              <mxPoint x="-822" y="1232.5" />
            </Array>
            <mxPoint x="-852" y="1233.5" as="targetPoint" />
            <mxPoint x="-799" y="1232.5" as="sourcePoint" />
          </mxGeometry>
        </mxCell>
        <mxCell id="ceErDbgAxqzRxjVDZLfd-44" value="&lt;b&gt;&lt;/b&gt;" style="edgeLabel;html=1;align=center;verticalAlign=middle;resizable=0;points=[];fontSize=12;" parent="ceErDbgAxqzRxjVDZLfd-43" vertex="1" connectable="0">
          <mxGeometry x="-0.2074" y="2" relative="1" as="geometry">
            <mxPoint y="1" as="offset" />
          </mxGeometry>
        </mxCell>
        <mxCell id="ceErDbgAxqzRxjVDZLfd-46" style="edgeStyle=orthogonalEdgeStyle;rounded=0;orthogonalLoop=1;jettySize=auto;html=1;fontSize=12;startSize=8;endSize=12;dashed=1;endArrow=openThin;endFill=0;exitX=-0.002;exitY=0.206;exitDx=0;exitDy=0;exitPerimeter=0;" parent="WIyWlLk6GJQsqaUBKTNV-1" edge="1">
          <mxGeometry relative="1" as="geometry">
            <Array as="points">
              <mxPoint x="-822" y="933" />
            </Array>
            <mxPoint x="-852" y="934" as="targetPoint" />
            <mxPoint x="-799" y="933" as="sourcePoint" />
          </mxGeometry>
        </mxCell>
        <mxCell id="ceErDbgAxqzRxjVDZLfd-47" value="&lt;b&gt;&lt;/b&gt;" style="edgeLabel;html=1;align=center;verticalAlign=middle;resizable=0;points=[];fontSize=12;" parent="ceErDbgAxqzRxjVDZLfd-46" vertex="1" connectable="0">
          <mxGeometry x="-0.2074" y="2" relative="1" as="geometry">
            <mxPoint y="1" as="offset" />
          </mxGeometry>
        </mxCell>
        <mxCell id="ceErDbgAxqzRxjVDZLfd-48" value="&lt;&lt;interface&gt;&gt;&#xa;PathAlgorithm" style="swimlane;fontStyle=1;align=center;verticalAlign=top;childLayout=stackLayout;horizontal=1;startSize=40;horizontalStack=0;resizeParent=1;resizeLast=0;collapsible=1;marginBottom=0;rounded=0;shadow=0;strokeWidth=1;fillColor=#dae8fc;strokeColor=#6c8ebf;" parent="WIyWlLk6GJQsqaUBKTNV-1" vertex="1">
          <mxGeometry x="-1440" y="1020" width="257" height="74" as="geometry">
            <mxRectangle x="230" y="140" width="160" height="26" as="alternateBounds" />
          </mxGeometry>
        </mxCell>
        <mxCell id="ceErDbgAxqzRxjVDZLfd-49" value="" style="line;html=1;strokeWidth=1;align=left;verticalAlign=middle;spacingTop=-1;spacingLeft=3;spacingRight=3;rotatable=0;labelPosition=right;points=[];portConstraint=eastwest;" parent="ceErDbgAxqzRxjVDZLfd-48" vertex="1">
          <mxGeometry y="40" width="257" height="8" as="geometry" />
        </mxCell>
        <mxCell id="ceErDbgAxqzRxjVDZLfd-50" value="+findPath(start: Location, end: Location): Path" style="text;align=left;verticalAlign=top;spacingLeft=4;spacingRight=4;overflow=hidden;rotatable=0;points=[[0,0.5],[1,0.5]];portConstraint=eastwest;" parent="ceErDbgAxqzRxjVDZLfd-48" vertex="1">
          <mxGeometry y="48" width="257" height="26" as="geometry" />
        </mxCell>
        <mxCell id="ceErDbgAxqzRxjVDZLfd-52" style="edgeStyle=orthogonalEdgeStyle;rounded=0;orthogonalLoop=1;jettySize=auto;html=1;exitX=0;exitY=0.5;exitDx=0;exitDy=0;entryX=1;entryY=0.5;entryDx=0;entryDy=0;endArrow=block;endFill=0;dashed=1;" parent="WIyWlLk6GJQsqaUBKTNV-1" source="ceErDbgAxqzRxjVDZLfd-26" target="ceErDbgAxqzRxjVDZLfd-50" edge="1">
          <mxGeometry relative="1" as="geometry" />
        </mxCell>
        <mxCell id="ceErDbgAxqzRxjVDZLfd-54" style="edgeStyle=orthogonalEdgeStyle;rounded=0;orthogonalLoop=1;jettySize=auto;html=1;exitX=0;exitY=0.5;exitDx=0;exitDy=0;entryX=1;entryY=0.5;entryDx=0;entryDy=0;endArrow=block;endFill=0;dashed=1;" parent="WIyWlLk6GJQsqaUBKTNV-1" source="ceErDbgAxqzRxjVDZLfd-35" target="ceErDbgAxqzRxjVDZLfd-50" edge="1">
          <mxGeometry relative="1" as="geometry" />
        </mxCell>
        <mxCell id="ceErDbgAxqzRxjVDZLfd-55" style="edgeStyle=orthogonalEdgeStyle;rounded=0;orthogonalLoop=1;jettySize=auto;html=1;exitX=0;exitY=0.5;exitDx=0;exitDy=0;entryX=1;entryY=0.5;entryDx=0;entryDy=0;endArrow=block;endFill=0;dashed=1;" parent="WIyWlLk6GJQsqaUBKTNV-1" source="ceErDbgAxqzRxjVDZLfd-32" target="ceErDbgAxqzRxjVDZLfd-50" edge="1">
          <mxGeometry relative="1" as="geometry" />
        </mxCell>
        <mxCell id="ceErDbgAxqzRxjVDZLfd-56" style="edgeStyle=orthogonalEdgeStyle;rounded=0;orthogonalLoop=1;jettySize=auto;html=1;exitX=0;exitY=0.5;exitDx=0;exitDy=0;entryX=1;entryY=0.5;entryDx=0;entryDy=0;endArrow=block;endFill=0;dashed=1;" parent="WIyWlLk6GJQsqaUBKTNV-1" source="ceErDbgAxqzRxjVDZLfd-29" target="ceErDbgAxqzRxjVDZLfd-50" edge="1">
          <mxGeometry relative="1" as="geometry" />
        </mxCell>
        <mxCell id="ceErDbgAxqzRxjVDZLfd-68" value="LocationFactory" style="swimlane;fontStyle=1;align=center;verticalAlign=top;childLayout=stackLayout;horizontal=1;startSize=26;horizontalStack=0;resizeParent=1;resizeParentMax=0;resizeLast=0;collapsible=1;marginBottom=0;whiteSpace=wrap;html=1;fillColor=#dae8fc;strokeColor=#6c8ebf;" parent="WIyWlLk6GJQsqaUBKTNV-1" vertex="1">
          <mxGeometry x="-730" y="760" width="160" height="110" as="geometry" />
        </mxCell>
        <mxCell id="ceErDbgAxqzRxjVDZLfd-69" value="- locationPool: Map&amp;lt;String, LocationFlyweight&amp;gt;" style="text;strokeColor=none;fillColor=none;align=left;verticalAlign=top;spacingLeft=4;spacingRight=4;overflow=hidden;rotatable=0;points=[[0,0.5],[1,0.5]];portConstraint=eastwest;whiteSpace=wrap;html=1;" parent="ceErDbgAxqzRxjVDZLfd-68" vertex="1">
          <mxGeometry y="26" width="160" height="34" as="geometry" />
        </mxCell>
        <mxCell id="ceErDbgAxqzRxjVDZLfd-70" value="" style="line;strokeWidth=1;fillColor=none;align=left;verticalAlign=middle;spacingTop=-1;spacingLeft=3;spacingRight=3;rotatable=0;labelPosition=right;points=[];portConstraint=eastwest;strokeColor=inherit;" parent="ceErDbgAxqzRxjVDZLfd-68" vertex="1">
          <mxGeometry y="60" width="160" height="8" as="geometry" />
        </mxCell>
        <mxCell id="ceErDbgAxqzRxjVDZLfd-71" value="+getSharedLocation(String): LocationFlyweight&lt;div&gt;&lt;br&gt;&lt;/div&gt;&lt;div&gt;&lt;br&gt;&lt;/div&gt;&lt;div&gt;&lt;br&gt;&lt;/div&gt;&lt;div&gt;&lt;br&gt;&lt;/div&gt;" style="text;strokeColor=none;fillColor=none;align=left;verticalAlign=top;spacingLeft=4;spacingRight=4;overflow=hidden;rotatable=0;points=[[0,0.5],[1,0.5]];portConstraint=eastwest;whiteSpace=wrap;html=1;" parent="ceErDbgAxqzRxjVDZLfd-68" vertex="1">
          <mxGeometry y="68" width="160" height="42" as="geometry" />
        </mxCell>
        <mxCell id="ceErDbgAxqzRxjVDZLfd-90" style="edgeStyle=orthogonalEdgeStyle;rounded=0;orthogonalLoop=1;jettySize=auto;html=1;exitX=0;exitY=0.5;exitDx=0;exitDy=0;dashed=1;endArrow=open;endFill=0;entryX=1;entryY=0.5;entryDx=0;entryDy=0;" parent="WIyWlLk6GJQsqaUBKTNV-1" target="k7wSuXpc-OqHTCkI8A_d-60" edge="1">
          <mxGeometry relative="1" as="geometry">
            <mxPoint x="-980" y="788" as="sourcePoint" />
            <mxPoint x="-1130" y="769.3536931818181" as="targetPoint" />
            <Array as="points">
              <mxPoint x="-980" y="824" />
            </Array>
          </mxGeometry>
        </mxCell>
        <mxCell id="ceErDbgAxqzRxjVDZLfd-97" value="LocationFlyweight" style="swimlane;fontStyle=1;align=center;verticalAlign=top;childLayout=stackLayout;horizontal=1;startSize=26;horizontalStack=0;resizeParent=1;resizeParentMax=0;resizeLast=0;collapsible=1;marginBottom=0;whiteSpace=wrap;html=1;fillColor=#dae8fc;strokeColor=#6c8ebf;" parent="WIyWlLk6GJQsqaUBKTNV-1" vertex="1">
          <mxGeometry x="-980" y="760" width="160" height="138" as="geometry" />
        </mxCell>
        <mxCell id="ceErDbgAxqzRxjVDZLfd-98" value="&lt;div&gt;-name: String&lt;/div&gt;&lt;div&gt;-atitude: float&lt;/div&gt;&lt;div&gt;-longitude: float&lt;/div&gt;" style="text;strokeColor=none;fillColor=none;align=left;verticalAlign=top;spacingLeft=4;spacingRight=4;overflow=hidden;rotatable=0;points=[[0,0.5],[1,0.5]];portConstraint=eastwest;whiteSpace=wrap;html=1;" parent="ceErDbgAxqzRxjVDZLfd-97" vertex="1">
          <mxGeometry y="26" width="160" height="54" as="geometry" />
        </mxCell>
        <mxCell id="ceErDbgAxqzRxjVDZLfd-99" value="" style="line;strokeWidth=1;fillColor=none;align=left;verticalAlign=middle;spacingTop=-1;spacingLeft=3;spacingRight=3;rotatable=0;labelPosition=right;points=[];portConstraint=eastwest;strokeColor=inherit;" parent="ceErDbgAxqzRxjVDZLfd-97" vertex="1">
          <mxGeometry y="80" width="160" height="8" as="geometry" />
        </mxCell>
        <mxCell id="ceErDbgAxqzRxjVDZLfd-100" value="+ LocationFlyweight(name: String, latitude: float, longitude: float)" style="text;strokeColor=none;fillColor=none;align=left;verticalAlign=top;spacingLeft=4;spacingRight=4;overflow=hidden;rotatable=0;points=[[0,0.5],[1,0.5]];portConstraint=eastwest;whiteSpace=wrap;html=1;" parent="ceErDbgAxqzRxjVDZLfd-97" vertex="1">
          <mxGeometry y="88" width="160" height="50" as="geometry" />
        </mxCell>
        <mxCell id="ceErDbgAxqzRxjVDZLfd-101" style="edgeStyle=orthogonalEdgeStyle;rounded=0;orthogonalLoop=1;jettySize=auto;html=1;dashed=1;endArrow=open;endFill=0;exitX=0;exitY=0.394;exitDx=0;exitDy=0;exitPerimeter=0;" parent="WIyWlLk6GJQsqaUBKTNV-1" source="ceErDbgAxqzRxjVDZLfd-70" edge="1">
          <mxGeometry relative="1" as="geometry">
            <mxPoint x="-740" y="810.0040000000001" as="sourcePoint" />
            <mxPoint x="-820" y="823" as="targetPoint" />
            <Array as="points">
              <mxPoint x="-740" y="823" />
            </Array>
          </mxGeometry>
        </mxCell>
        <mxCell id="ceErDbgAxqzRxjVDZLfd-102" value="Preference" style="swimlane;fontStyle=1;align=center;verticalAlign=top;childLayout=stackLayout;horizontal=1;startSize=26;horizontalStack=0;resizeParent=1;resizeParentMax=0;resizeLast=0;collapsible=1;marginBottom=0;whiteSpace=wrap;html=1;" parent="WIyWlLk6GJQsqaUBKTNV-1" vertex="1">
          <mxGeometry x="325" y="400" width="360" height="180" as="geometry" />
        </mxCell>
        <mxCell id="ceErDbgAxqzRxjVDZLfd-103" value="&lt;div&gt;&lt;span style=&quot;background-color: initial;&quot;&gt;- interests: List&amp;lt;int&amp;gt;&lt;/span&gt;&lt;br&gt;&lt;/div&gt;&lt;div&gt;- reservationHistory: List&amp;lt;int&amp;gt;&lt;/div&gt;&lt;div&gt;- preferredGenres: List&amp;lt;string&amp;gt;&lt;/div&gt;&lt;div&gt;- favoriteArtists: List&amp;lt;string&amp;gt;&lt;/div&gt;&lt;div&gt;- preferredDates: List&amp;lt;string&amp;gt;&lt;/div&gt;" style="text;strokeColor=none;fillColor=none;align=left;verticalAlign=top;spacingLeft=4;spacingRight=4;overflow=hidden;rotatable=0;points=[[0,0.5],[1,0.5]];portConstraint=eastwest;whiteSpace=wrap;html=1;" parent="ceErDbgAxqzRxjVDZLfd-102" vertex="1">
          <mxGeometry y="26" width="360" height="84" as="geometry" />
        </mxCell>
        <mxCell id="ceErDbgAxqzRxjVDZLfd-104" value="" style="line;strokeWidth=1;fillColor=none;align=left;verticalAlign=middle;spacingTop=-1;spacingLeft=3;spacingRight=3;rotatable=0;labelPosition=right;points=[];portConstraint=eastwest;strokeColor=inherit;" parent="ceErDbgAxqzRxjVDZLfd-102" vertex="1">
          <mxGeometry y="110" width="360" height="8" as="geometry" />
        </mxCell>
        <mxCell id="ceErDbgAxqzRxjVDZLfd-105" value="&lt;div&gt;&lt;span style=&quot;background-color: initial;&quot;&gt;+ attach(observer: Observer)&lt;/span&gt;&lt;/div&gt;&lt;div&gt;+ detach(observer: Observer)&lt;/div&gt;&lt;div&gt;&lt;span style=&quot;background-color: initial;&quot;&gt;+ notify()&lt;/span&gt;&lt;/div&gt;" style="text;strokeColor=none;fillColor=none;align=left;verticalAlign=top;spacingLeft=4;spacingRight=4;overflow=hidden;rotatable=0;points=[[0,0.5],[1,0.5]];portConstraint=eastwest;whiteSpace=wrap;html=1;" parent="ceErDbgAxqzRxjVDZLfd-102" vertex="1">
          <mxGeometry y="118" width="360" height="62" as="geometry" />
        </mxCell>
        <mxCell id="ceErDbgAxqzRxjVDZLfd-111" value="Observer" style="swimlane;fontStyle=1;align=center;verticalAlign=top;childLayout=stackLayout;horizontal=1;startSize=26;horizontalStack=0;resizeParent=1;resizeParentMax=0;resizeLast=0;collapsible=1;marginBottom=0;whiteSpace=wrap;html=1;fillColor=#dae8fc;strokeColor=#6c8ebf;" parent="WIyWlLk6GJQsqaUBKTNV-1" vertex="1">
          <mxGeometry x="525" y="660" width="205" height="60" as="geometry" />
        </mxCell>
        <mxCell id="ceErDbgAxqzRxjVDZLfd-113" value="" style="line;strokeWidth=1;fillColor=none;align=left;verticalAlign=middle;spacingTop=-1;spacingLeft=3;spacingRight=3;rotatable=0;labelPosition=right;points=[];portConstraint=eastwest;strokeColor=inherit;" parent="ceErDbgAxqzRxjVDZLfd-111" vertex="1">
          <mxGeometry y="26" width="205" height="8" as="geometry" />
        </mxCell>
        <mxCell id="ceErDbgAxqzRxjVDZLfd-114" value="+ update(preference: Preference)" style="text;strokeColor=none;fillColor=none;align=left;verticalAlign=top;spacingLeft=4;spacingRight=4;overflow=hidden;rotatable=0;points=[[0,0.5],[1,0.5]];portConstraint=eastwest;whiteSpace=wrap;html=1;" parent="ceErDbgAxqzRxjVDZLfd-111" vertex="1">
          <mxGeometry y="34" width="205" height="26" as="geometry" />
        </mxCell>
        <mxCell id="ceErDbgAxqzRxjVDZLfd-115" style="edgeStyle=orthogonalEdgeStyle;rounded=0;orthogonalLoop=1;jettySize=auto;html=1;entryX=0.771;entryY=0.987;entryDx=0;entryDy=0;entryPerimeter=0;exitX=0.5;exitY=0;exitDx=0;exitDy=0;dashed=1;endArrow=open;endFill=0;" parent="WIyWlLk6GJQsqaUBKTNV-1" source="ceErDbgAxqzRxjVDZLfd-111" target="ceErDbgAxqzRxjVDZLfd-105" edge="1">
          <mxGeometry relative="1" as="geometry">
            <mxPoint x="604.7999999999997" y="658.704" as="sourcePoint" />
            <mxPoint x="603.1199999999999" y="582.9759999999997" as="targetPoint" />
            <Array as="points">
              <mxPoint x="603" y="659" />
            </Array>
          </mxGeometry>
        </mxCell>
        <mxCell id="hKbBEOzbm7R7rT2PS4d6-0" style="edgeStyle=orthogonalEdgeStyle;rounded=0;orthogonalLoop=1;jettySize=auto;html=1;entryX=0.988;entryY=0.341;entryDx=0;entryDy=0;entryPerimeter=0;endArrow=blockThin;endFill=0;dashed=1;" parent="WIyWlLk6GJQsqaUBKTNV-1" target="eqaIh_Kuwr5XpTDgUAO9-7" edge="1">
          <mxGeometry relative="1" as="geometry">
            <mxPoint x="-490" y="471" as="sourcePoint" />
            <Array as="points">
              <mxPoint x="-490" y="472" />
              <mxPoint x="-530" y="472" />
              <mxPoint x="-530" y="470" />
            </Array>
          </mxGeometry>
        </mxCell>
        <mxCell id="hKbBEOzbm7R7rT2PS4d6-5" value="StandardUser" style="swimlane;fontStyle=1;align=center;verticalAlign=top;childLayout=stackLayout;horizontal=1;startSize=26;horizontalStack=0;resizeParent=1;resizeParentMax=0;resizeLast=0;collapsible=1;marginBottom=0;whiteSpace=wrap;html=1;fillColor=#dae8fc;strokeColor=#6c8ebf;" parent="WIyWlLk6GJQsqaUBKTNV-1" vertex="1">
          <mxGeometry x="-95.31" y="227" width="160" height="70" as="geometry" />
        </mxCell>
        <mxCell id="hKbBEOzbm7R7rT2PS4d6-11" value="- membershipLevel" style="text;html=1;align=left;verticalAlign=middle;resizable=0;points=[];autosize=1;strokeColor=none;fillColor=none;" parent="hKbBEOzbm7R7rT2PS4d6-5" vertex="1">
          <mxGeometry y="26" width="160" height="30" as="geometry" />
        </mxCell>
        <mxCell id="hKbBEOzbm7R7rT2PS4d6-7" value="" style="line;strokeWidth=1;fillColor=none;align=left;verticalAlign=middle;spacingTop=-1;spacingLeft=3;spacingRight=3;rotatable=0;labelPosition=right;points=[];portConstraint=eastwest;strokeColor=inherit;" parent="hKbBEOzbm7R7rT2PS4d6-5" vertex="1">
          <mxGeometry y="56" width="160" height="14" as="geometry" />
        </mxCell>
        <mxCell id="hKbBEOzbm7R7rT2PS4d6-8" value="" style="endArrow=none;html=1;rounded=0;exitX=0.995;exitY=0.481;exitDx=0;exitDy=0;dashed=1;exitPerimeter=0;" parent="WIyWlLk6GJQsqaUBKTNV-1" source="hKbBEOzbm7R7rT2PS4d6-11" edge="1">
          <mxGeometry width="50" height="50" relative="1" as="geometry">
            <mxPoint x="30" y="350" as="sourcePoint" />
            <mxPoint x="80" y="320" as="targetPoint" />
            <Array as="points">
              <mxPoint x="80" y="267" />
            </Array>
          </mxGeometry>
        </mxCell>
        <mxCell id="hKbBEOzbm7R7rT2PS4d6-9" value="" style="endArrow=none;html=1;rounded=0;exitX=1;exitY=0.5;exitDx=0;exitDy=0;dashed=1;" parent="WIyWlLk6GJQsqaUBKTNV-1" edge="1">
          <mxGeometry width="50" height="50" relative="1" as="geometry">
            <mxPoint x="64.69" y="350" as="sourcePoint" />
            <mxPoint x="80" y="320" as="targetPoint" />
            <Array as="points">
              <mxPoint x="79.69" y="350" />
            </Array>
          </mxGeometry>
        </mxCell>
        <mxCell id="hKbBEOzbm7R7rT2PS4d6-10" value="" style="endArrow=classic;html=1;rounded=0;entryX=-0.001;entryY=0.63;entryDx=0;entryDy=0;entryPerimeter=0;dashed=1;" parent="WIyWlLk6GJQsqaUBKTNV-1" target="k7wSuXpc-OqHTCkI8A_d-18" edge="1">
          <mxGeometry width="50" height="50" relative="1" as="geometry">
            <mxPoint x="80" y="310" as="sourcePoint" />
            <mxPoint x="80" y="300" as="targetPoint" />
          </mxGeometry>
        </mxCell>
        <mxCell id="hKbBEOzbm7R7rT2PS4d6-1" value="PremiumUser" style="swimlane;fontStyle=1;align=center;verticalAlign=top;childLayout=stackLayout;horizontal=1;startSize=30;horizontalStack=0;resizeParent=1;resizeParentMax=0;resizeLast=0;collapsible=1;marginBottom=0;whiteSpace=wrap;html=1;fillColor=#dae8fc;strokeColor=#6c8ebf;" parent="WIyWlLk6GJQsqaUBKTNV-1" vertex="1">
          <mxGeometry x="-95.31" y="320" width="160" height="70" as="geometry" />
        </mxCell>
        <mxCell id="hKbBEOzbm7R7rT2PS4d6-12" value="&lt;span style=&quot;&quot;&gt;- membershipLevel&lt;/span&gt;" style="text;html=1;align=left;verticalAlign=middle;resizable=0;points=[];autosize=1;strokeColor=none;fillColor=none;" parent="hKbBEOzbm7R7rT2PS4d6-1" vertex="1">
          <mxGeometry y="30" width="160" height="30" as="geometry" />
        </mxCell>
        <mxCell id="hKbBEOzbm7R7rT2PS4d6-3" value="" style="line;strokeWidth=1;fillColor=none;align=left;verticalAlign=middle;spacingTop=-1;spacingLeft=3;spacingRight=3;rotatable=0;labelPosition=right;points=[];portConstraint=eastwest;strokeColor=inherit;" parent="hKbBEOzbm7R7rT2PS4d6-1" vertex="1">
          <mxGeometry y="60" width="160" height="10" as="geometry" />
        </mxCell>
        <mxCell id="hKbBEOzbm7R7rT2PS4d6-13" value="&amp;lt;&amp;lt;interface&amp;gt;&amp;gt;&lt;div&gt;AuthenticationStrategy&lt;/div&gt;" style="swimlane;fontStyle=1;align=center;verticalAlign=top;childLayout=stackLayout;horizontal=1;startSize=40;horizontalStack=0;resizeParent=1;resizeParentMax=0;resizeLast=0;collapsible=1;marginBottom=0;whiteSpace=wrap;html=1;fillColor=#dae8fc;strokeColor=#6c8ebf;" parent="WIyWlLk6GJQsqaUBKTNV-1" vertex="1">
          <mxGeometry x="770" y="220" width="230" height="70" as="geometry" />
        </mxCell>
        <mxCell id="hKbBEOzbm7R7rT2PS4d6-14" value="" style="line;strokeWidth=1;fillColor=none;align=left;verticalAlign=middle;spacingTop=-1;spacingLeft=3;spacingRight=3;rotatable=0;labelPosition=right;points=[];portConstraint=eastwest;strokeColor=inherit;" parent="hKbBEOzbm7R7rT2PS4d6-13" vertex="1">
          <mxGeometry y="40" width="230" height="8" as="geometry" />
        </mxCell>
        <mxCell id="hKbBEOzbm7R7rT2PS4d6-15" value="+ authenticateUser(uid:String): boolean" style="text;strokeColor=none;fillColor=none;align=left;verticalAlign=top;spacingLeft=4;spacingRight=4;overflow=hidden;rotatable=0;points=[[0,0.5],[1,0.5]];portConstraint=eastwest;whiteSpace=wrap;html=1;" parent="hKbBEOzbm7R7rT2PS4d6-13" vertex="1">
          <mxGeometry y="48" width="230" height="22" as="geometry" />
        </mxCell>
        <mxCell id="hKbBEOzbm7R7rT2PS4d6-16" style="edgeStyle=orthogonalEdgeStyle;rounded=0;orthogonalLoop=1;jettySize=auto;html=1;entryX=0;entryY=0.5;entryDx=0;entryDy=0;dashed=1;endArrow=open;endFill=0;" parent="WIyWlLk6GJQsqaUBKTNV-1" source="k7wSuXpc-OqHTCkI8A_d-6" target="hKbBEOzbm7R7rT2PS4d6-15" edge="1">
          <mxGeometry relative="1" as="geometry">
            <Array as="points">
              <mxPoint x="715" y="280" />
            </Array>
          </mxGeometry>
        </mxCell>
        <mxCell id="hKbBEOzbm7R7rT2PS4d6-17" value="Strategy" style="text;html=1;align=center;verticalAlign=middle;resizable=0;points=[];autosize=1;strokeColor=none;fillColor=none;" parent="WIyWlLk6GJQsqaUBKTNV-1" vertex="1">
          <mxGeometry x="670" y="255" width="70" height="30" as="geometry" />
        </mxCell>
        <mxCell id="hKbBEOzbm7R7rT2PS4d6-18" value="" style="endArrow=none;html=1;rounded=0;" parent="WIyWlLk6GJQsqaUBKTNV-1" edge="1">
          <mxGeometry width="50" height="50" relative="1" as="geometry">
            <mxPoint x="350" y="-94.5" as="sourcePoint" />
            <mxPoint x="400" y="-150" as="targetPoint" />
            <Array as="points">
              <mxPoint x="350" y="-150" />
            </Array>
          </mxGeometry>
        </mxCell>
        <mxCell id="hKbBEOzbm7R7rT2PS4d6-19" value="" style="endArrow=none;html=1;rounded=0;" parent="WIyWlLk6GJQsqaUBKTNV-1" edge="1">
          <mxGeometry width="50" height="50" relative="1" as="geometry">
            <mxPoint x="610" y="-89.5" as="sourcePoint" />
            <mxPoint x="400" y="-150" as="targetPoint" />
            <Array as="points">
              <mxPoint x="610" y="-150" />
            </Array>
          </mxGeometry>
        </mxCell>
        <mxCell id="hKbBEOzbm7R7rT2PS4d6-20" value="" style="endArrow=none;html=1;rounded=0;" parent="WIyWlLk6GJQsqaUBKTNV-1" edge="1">
          <mxGeometry width="50" height="50" relative="1" as="geometry">
            <mxPoint x="490" y="-150" as="sourcePoint" />
            <mxPoint x="880" y="-200" as="targetPoint" />
            <Array as="points">
              <mxPoint x="490" y="-200" />
            </Array>
          </mxGeometry>
        </mxCell>
        <mxCell id="hKbBEOzbm7R7rT2PS4d6-21" value="" style="endArrow=classic;html=1;rounded=0;entryX=0.469;entryY=-0.023;entryDx=0;entryDy=0;entryPerimeter=0;" parent="WIyWlLk6GJQsqaUBKTNV-1" target="hKbBEOzbm7R7rT2PS4d6-13" edge="1">
          <mxGeometry width="50" height="50" relative="1" as="geometry">
            <mxPoint x="880" y="-200" as="sourcePoint" />
            <mxPoint x="880" y="-20" as="targetPoint" />
          </mxGeometry>
        </mxCell>
        <mxCell id="hKbBEOzbm7R7rT2PS4d6-22" value="register" style="edgeLabel;html=1;align=center;verticalAlign=middle;resizable=0;points=[];" parent="WIyWlLk6GJQsqaUBKTNV-1" vertex="1" connectable="0">
          <mxGeometry x="540.0027328249984" y="77.00499991608046" as="geometry">
            <mxPoint x="341" y="-55" as="offset" />
          </mxGeometry>
        </mxCell>
        <mxCell id="hKbBEOzbm7R7rT2PS4d6-25" value="&lt;span style=&quot;text-wrap: nowrap;&quot;&gt;SMSVerificationAdapter&lt;/span&gt;" style="swimlane;fontStyle=1;align=center;verticalAlign=top;childLayout=stackLayout;horizontal=1;startSize=30;horizontalStack=0;resizeParent=1;resizeParentMax=0;resizeLast=0;collapsible=1;marginBottom=0;whiteSpace=wrap;html=1;fillColor=#dae8fc;strokeColor=#6c8ebf;" parent="WIyWlLk6GJQsqaUBKTNV-1" vertex="1">
          <mxGeometry x="245" y="-310" width="230" height="90" as="geometry" />
        </mxCell>
        <mxCell id="hKbBEOzbm7R7rT2PS4d6-32" value="- smsVerification: SMSVerification" style="text;html=1;align=left;verticalAlign=middle;resizable=0;points=[];autosize=1;strokeColor=none;fillColor=none;" parent="hKbBEOzbm7R7rT2PS4d6-25" vertex="1">
          <mxGeometry y="30" width="230" height="30" as="geometry" />
        </mxCell>
        <mxCell id="hKbBEOzbm7R7rT2PS4d6-26" value="" style="line;strokeWidth=1;fillColor=none;align=left;verticalAlign=middle;spacingTop=-1;spacingLeft=3;spacingRight=3;rotatable=0;labelPosition=right;points=[];portConstraint=eastwest;strokeColor=inherit;" parent="hKbBEOzbm7R7rT2PS4d6-25" vertex="1">
          <mxGeometry y="60" width="230" height="10" as="geometry" />
        </mxCell>
        <mxCell id="hKbBEOzbm7R7rT2PS4d6-27" value="+ verifyCode(uid: String, code: String): boolean" style="text;strokeColor=none;fillColor=none;align=left;verticalAlign=top;spacingLeft=4;spacingRight=4;overflow=hidden;rotatable=0;points=[[0,0.5],[1,0.5]];portConstraint=eastwest;whiteSpace=wrap;html=1;" parent="hKbBEOzbm7R7rT2PS4d6-25" vertex="1">
          <mxGeometry y="70" width="230" height="20" as="geometry" />
        </mxCell>
        <mxCell id="hKbBEOzbm7R7rT2PS4d6-33" value="&lt;span style=&quot;text-wrap: nowrap;&quot;&gt;KakaoVerificationAdapter&lt;/span&gt;" style="swimlane;fontStyle=1;align=center;verticalAlign=top;childLayout=stackLayout;horizontal=1;startSize=30;horizontalStack=0;resizeParent=1;resizeParentMax=0;resizeLast=0;collapsible=1;marginBottom=0;whiteSpace=wrap;html=1;fillColor=#dae8fc;strokeColor=#6c8ebf;" parent="WIyWlLk6GJQsqaUBKTNV-1" vertex="1">
          <mxGeometry x="520" y="-310" width="230" height="90" as="geometry" />
        </mxCell>
        <mxCell id="hKbBEOzbm7R7rT2PS4d6-34" value="- kakaoVerification: SMSVerification" style="text;html=1;align=left;verticalAlign=middle;resizable=0;points=[];autosize=1;strokeColor=none;fillColor=none;" parent="hKbBEOzbm7R7rT2PS4d6-33" vertex="1">
          <mxGeometry y="30" width="230" height="30" as="geometry" />
        </mxCell>
        <mxCell id="hKbBEOzbm7R7rT2PS4d6-35" value="" style="line;strokeWidth=1;fillColor=none;align=left;verticalAlign=middle;spacingTop=-1;spacingLeft=3;spacingRight=3;rotatable=0;labelPosition=right;points=[];portConstraint=eastwest;strokeColor=inherit;" parent="hKbBEOzbm7R7rT2PS4d6-33" vertex="1">
          <mxGeometry y="60" width="230" height="10" as="geometry" />
        </mxCell>
        <mxCell id="hKbBEOzbm7R7rT2PS4d6-36" value="+ verifyCode(uid: String, code: String): boolean" style="text;strokeColor=none;fillColor=none;align=left;verticalAlign=top;spacingLeft=4;spacingRight=4;overflow=hidden;rotatable=0;points=[[0,0.5],[1,0.5]];portConstraint=eastwest;whiteSpace=wrap;html=1;" parent="hKbBEOzbm7R7rT2PS4d6-33" vertex="1">
          <mxGeometry y="70" width="230" height="20" as="geometry" />
        </mxCell>
        <mxCell id="hKbBEOzbm7R7rT2PS4d6-37" value="" style="endArrow=none;html=1;rounded=0;entryX=0.649;entryY=1.031;entryDx=0;entryDy=0;entryPerimeter=0;" parent="WIyWlLk6GJQsqaUBKTNV-1" target="hKbBEOzbm7R7rT2PS4d6-36" edge="1">
          <mxGeometry width="50" height="50" relative="1" as="geometry">
            <mxPoint x="670" y="-90" as="sourcePoint" />
            <mxPoint x="660" y="-188" as="targetPoint" />
            <Array as="points">
              <mxPoint x="670" y="-158" />
            </Array>
          </mxGeometry>
        </mxCell>
        <mxCell id="hKbBEOzbm7R7rT2PS4d6-38" value="" style="endArrow=none;html=1;rounded=0;entryX=0.312;entryY=1.082;entryDx=0;entryDy=0;entryPerimeter=0;" parent="WIyWlLk6GJQsqaUBKTNV-1" target="hKbBEOzbm7R7rT2PS4d6-27" edge="1">
          <mxGeometry width="50" height="50" relative="1" as="geometry">
            <mxPoint x="315.69" y="-94.5" as="sourcePoint" />
            <mxPoint x="314.69" y="-223.5" as="targetPoint" />
            <Array as="points">
              <mxPoint x="315.69" y="-162.5" />
            </Array>
          </mxGeometry>
        </mxCell>
        <mxCell id="hKbBEOzbm7R7rT2PS4d6-42" value="&amp;lt;&amp;lt;interface&amp;gt;&amp;gt;&lt;div&gt;VerificationAdapter&lt;/div&gt;" style="swimlane;fontStyle=1;align=center;verticalAlign=top;childLayout=stackLayout;horizontal=1;startSize=35;horizontalStack=0;resizeParent=1;resizeParentMax=0;resizeLast=0;collapsible=1;marginBottom=0;whiteSpace=wrap;html=1;fillColor=#dae8fc;strokeColor=#6c8ebf;" parent="WIyWlLk6GJQsqaUBKTNV-1" vertex="1">
          <mxGeometry x="970" y="89" width="190" height="66" as="geometry" />
        </mxCell>
        <mxCell id="hKbBEOzbm7R7rT2PS4d6-43" value="" style="line;strokeWidth=1;fillColor=none;align=left;verticalAlign=middle;spacingTop=-1;spacingLeft=3;spacingRight=3;rotatable=0;labelPosition=right;points=[];portConstraint=eastwest;strokeColor=inherit;" parent="hKbBEOzbm7R7rT2PS4d6-42" vertex="1">
          <mxGeometry y="35" width="190" height="8" as="geometry" />
        </mxCell>
        <mxCell id="hKbBEOzbm7R7rT2PS4d6-44" value="+ verrifyCode(uid, code): boolean" style="text;strokeColor=none;fillColor=none;align=left;verticalAlign=top;spacingLeft=4;spacingRight=4;overflow=hidden;rotatable=0;points=[[0,0.5],[1,0.5]];portConstraint=eastwest;whiteSpace=wrap;html=1;" parent="hKbBEOzbm7R7rT2PS4d6-42" vertex="1">
          <mxGeometry y="43" width="190" height="23" as="geometry" />
        </mxCell>
        <mxCell id="hKbBEOzbm7R7rT2PS4d6-45" value="" style="endArrow=classic;html=1;rounded=0;exitX=1.017;exitY=0.91;exitDx=0;exitDy=0;exitPerimeter=0;entryX=0;entryY=0.5;entryDx=0;entryDy=0;" parent="WIyWlLk6GJQsqaUBKTNV-1" source="hKbBEOzbm7R7rT2PS4d6-23" target="hKbBEOzbm7R7rT2PS4d6-42" edge="1">
          <mxGeometry width="50" height="50" relative="1" as="geometry">
            <mxPoint x="800" y="130" as="sourcePoint" />
            <mxPoint x="850" y="80" as="targetPoint" />
          </mxGeometry>
        </mxCell>
        <mxCell id="hKbBEOzbm7R7rT2PS4d6-46" value="register" style="edgeLabel;html=1;align=center;verticalAlign=middle;resizable=0;points=[];" parent="WIyWlLk6GJQsqaUBKTNV-1" vertex="1" connectable="0">
          <mxGeometry x="820.0044789535581" y="121.99628974634875" as="geometry" />
        </mxCell>
        <mxCell id="hKbBEOzbm7R7rT2PS4d6-47" value="" style="endArrow=none;html=1;rounded=0;" parent="WIyWlLk6GJQsqaUBKTNV-1" edge="1">
          <mxGeometry width="50" height="50" relative="1" as="geometry">
            <mxPoint x="650" y="-310" as="sourcePoint" />
            <mxPoint x="440" y="-370.5" as="targetPoint" />
            <Array as="points">
              <mxPoint x="650" y="-370.5" />
            </Array>
          </mxGeometry>
        </mxCell>
        <mxCell id="hKbBEOzbm7R7rT2PS4d6-48" value="" style="endArrow=none;html=1;rounded=0;exitX=0.632;exitY=-0.019;exitDx=0;exitDy=0;exitPerimeter=0;" parent="WIyWlLk6GJQsqaUBKTNV-1" source="hKbBEOzbm7R7rT2PS4d6-25" edge="1">
          <mxGeometry width="50" height="50" relative="1" as="geometry">
            <mxPoint x="390" y="-314.5" as="sourcePoint" />
            <mxPoint x="440" y="-370" as="targetPoint" />
            <Array as="points">
              <mxPoint x="390" y="-370" />
              <mxPoint x="410" y="-370" />
            </Array>
          </mxGeometry>
        </mxCell>
        <mxCell id="hKbBEOzbm7R7rT2PS4d6-50" value="" style="endArrow=none;html=1;rounded=0;" parent="WIyWlLk6GJQsqaUBKTNV-1" edge="1">
          <mxGeometry width="50" height="50" relative="1" as="geometry">
            <mxPoint x="510" y="-370" as="sourcePoint" />
            <mxPoint x="1080" y="-420" as="targetPoint" />
            <Array as="points">
              <mxPoint x="510" y="-420" />
            </Array>
          </mxGeometry>
        </mxCell>
        <mxCell id="hKbBEOzbm7R7rT2PS4d6-51" value="" style="endArrow=classic;html=1;rounded=0;entryX=0.469;entryY=-0.023;entryDx=0;entryDy=0;entryPerimeter=0;" parent="WIyWlLk6GJQsqaUBKTNV-1" edge="1">
          <mxGeometry width="50" height="50" relative="1" as="geometry">
            <mxPoint x="1080" y="-420" as="sourcePoint" />
            <mxPoint x="1080" y="89" as="targetPoint" />
          </mxGeometry>
        </mxCell>
        <mxCell id="hKbBEOzbm7R7rT2PS4d6-52" value="register" style="edgeLabel;html=1;align=center;verticalAlign=middle;resizable=0;points=[];" parent="WIyWlLk6GJQsqaUBKTNV-1" vertex="1" connectable="0">
          <mxGeometry x="1079.997815697045" y="-76.00236065160391" as="geometry" />
        </mxCell>
        <mxCell id="EAZOKuF9x9OMSlXHbcJ7-4" style="edgeStyle=orthogonalEdgeStyle;rounded=0;orthogonalLoop=1;jettySize=auto;html=1;entryX=0;entryY=0.5;entryDx=0;entryDy=0;endArrow=block;endFill=0;" parent="WIyWlLk6GJQsqaUBKTNV-1" source="EAZOKuF9x9OMSlXHbcJ7-0" edge="1">
          <mxGeometry relative="1" as="geometry">
            <mxPoint x="-260.0000000000002" y="893.5" as="targetPoint" />
            <Array as="points">
              <mxPoint x="-370" y="893" />
            </Array>
          </mxGeometry>
        </mxCell>
        <mxCell id="EAZOKuF9x9OMSlXHbcJ7-5" style="edgeStyle=orthogonalEdgeStyle;rounded=0;orthogonalLoop=1;jettySize=auto;html=1;entryX=0;entryY=0.5;entryDx=0;entryDy=0;endArrow=block;endFill=0;" parent="WIyWlLk6GJQsqaUBKTNV-1" source="EAZOKuF9x9OMSlXHbcJ7-0" edge="1">
          <mxGeometry relative="1" as="geometry">
            <mxPoint x="-260.0000000000002" y="988" as="targetPoint" />
            <Array as="points">
              <mxPoint x="-370" y="988" />
            </Array>
          </mxGeometry>
        </mxCell>
        <mxCell id="EAZOKuF9x9OMSlXHbcJ7-0" value="&lt;div&gt;&amp;lt;&amp;lt;Interface&amp;gt;&amp;gt;&lt;/div&gt;Image" style="swimlane;fontStyle=1;align=center;verticalAlign=top;childLayout=stackLayout;horizontal=1;startSize=40;horizontalStack=0;resizeParent=1;resizeParentMax=0;resizeLast=0;collapsible=1;marginBottom=0;whiteSpace=wrap;html=1;fillColor=#dae8fc;strokeColor=#6c8ebf;" parent="WIyWlLk6GJQsqaUBKTNV-1" vertex="1">
          <mxGeometry x="-450" y="1103" width="160" height="84" as="geometry" />
        </mxCell>
        <mxCell id="EAZOKuF9x9OMSlXHbcJ7-2" value="" style="line;strokeWidth=1;fillColor=none;align=left;verticalAlign=middle;spacingTop=-1;spacingLeft=3;spacingRight=3;rotatable=0;labelPosition=right;points=[];portConstraint=eastwest;strokeColor=inherit;" parent="EAZOKuF9x9OMSlXHbcJ7-0" vertex="1">
          <mxGeometry y="40" width="160" height="8" as="geometry" />
        </mxCell>
        <mxCell id="EAZOKuF9x9OMSlXHbcJ7-3" value="+ showImage() : void" style="text;strokeColor=none;fillColor=none;align=left;verticalAlign=top;spacingLeft=4;spacingRight=4;overflow=hidden;rotatable=0;points=[[0,0.5],[1,0.5]];portConstraint=eastwest;whiteSpace=wrap;html=1;" parent="EAZOKuF9x9OMSlXHbcJ7-0" vertex="1">
          <mxGeometry y="48" width="160" height="36" as="geometry" />
        </mxCell>
        <mxCell id="EAZOKuF9x9OMSlXHbcJ7-9" value="RealImage" style="swimlane;fontStyle=1;align=center;verticalAlign=top;childLayout=stackLayout;horizontal=1;startSize=26;horizontalStack=0;resizeParent=1;resizeParentMax=0;resizeLast=0;collapsible=1;marginBottom=0;whiteSpace=wrap;html=1;fillColor=#dae8fc;strokeColor=#6c8ebf;" parent="WIyWlLk6GJQsqaUBKTNV-1" vertex="1">
          <mxGeometry x="-260" y="954" width="160" height="84" as="geometry" />
        </mxCell>
        <mxCell id="EAZOKuF9x9OMSlXHbcJ7-10" value="- imageUrl : string" style="text;strokeColor=none;fillColor=none;align=left;verticalAlign=top;spacingLeft=4;spacingRight=4;overflow=hidden;rotatable=0;points=[[0,0.5],[1,0.5]];portConstraint=eastwest;whiteSpace=wrap;html=1;" parent="EAZOKuF9x9OMSlXHbcJ7-9" vertex="1">
          <mxGeometry y="26" width="160" height="24" as="geometry" />
        </mxCell>
        <mxCell id="EAZOKuF9x9OMSlXHbcJ7-11" value="" style="line;strokeWidth=1;fillColor=none;align=left;verticalAlign=middle;spacingTop=-1;spacingLeft=3;spacingRight=3;rotatable=0;labelPosition=right;points=[];portConstraint=eastwest;strokeColor=inherit;" parent="EAZOKuF9x9OMSlXHbcJ7-9" vertex="1">
          <mxGeometry y="50" width="160" height="8" as="geometry" />
        </mxCell>
        <mxCell id="EAZOKuF9x9OMSlXHbcJ7-12" value="+ showImage() : void" style="text;strokeColor=none;fillColor=none;align=left;verticalAlign=top;spacingLeft=4;spacingRight=4;overflow=hidden;rotatable=0;points=[[0,0.5],[1,0.5]];portConstraint=eastwest;whiteSpace=wrap;html=1;" parent="EAZOKuF9x9OMSlXHbcJ7-9" vertex="1">
          <mxGeometry y="58" width="160" height="26" as="geometry" />
        </mxCell>
        <mxCell id="EAZOKuF9x9OMSlXHbcJ7-14" value="ProxyImage" style="swimlane;fontStyle=1;align=center;verticalAlign=top;childLayout=stackLayout;horizontal=1;startSize=26;horizontalStack=0;resizeParent=1;resizeParentMax=0;resizeLast=0;collapsible=1;marginBottom=0;whiteSpace=wrap;html=1;fillColor=#dae8fc;strokeColor=#6c8ebf;" parent="WIyWlLk6GJQsqaUBKTNV-1" vertex="1">
          <mxGeometry x="-260" y="840" width="160" height="84" as="geometry" />
        </mxCell>
        <mxCell id="EAZOKuF9x9OMSlXHbcJ7-15" value="- imageProxy : Image" style="text;strokeColor=none;fillColor=none;align=left;verticalAlign=top;spacingLeft=4;spacingRight=4;overflow=hidden;rotatable=0;points=[[0,0.5],[1,0.5]];portConstraint=eastwest;whiteSpace=wrap;html=1;" parent="EAZOKuF9x9OMSlXHbcJ7-14" vertex="1">
          <mxGeometry y="26" width="160" height="24" as="geometry" />
        </mxCell>
        <mxCell id="EAZOKuF9x9OMSlXHbcJ7-16" value="" style="line;strokeWidth=1;fillColor=none;align=left;verticalAlign=middle;spacingTop=-1;spacingLeft=3;spacingRight=3;rotatable=0;labelPosition=right;points=[];portConstraint=eastwest;strokeColor=inherit;" parent="EAZOKuF9x9OMSlXHbcJ7-14" vertex="1">
          <mxGeometry y="50" width="160" height="8" as="geometry" />
        </mxCell>
        <mxCell id="EAZOKuF9x9OMSlXHbcJ7-17" value="+ showImage() : void" style="text;strokeColor=none;fillColor=none;align=left;verticalAlign=top;spacingLeft=4;spacingRight=4;overflow=hidden;rotatable=0;points=[[0,0.5],[1,0.5]];portConstraint=eastwest;whiteSpace=wrap;html=1;" parent="EAZOKuF9x9OMSlXHbcJ7-14" vertex="1">
          <mxGeometry y="58" width="160" height="26" as="geometry" />
        </mxCell>
        <mxCell id="xxB4TzcVYkeVjoPv3Ypi-0" value="ReviewList" style="swimlane;fontStyle=1;align=center;verticalAlign=top;childLayout=stackLayout;horizontal=1;startSize=26;horizontalStack=0;resizeParent=1;resizeParentMax=0;resizeLast=0;collapsible=1;marginBottom=0;whiteSpace=wrap;html=1;" parent="WIyWlLk6GJQsqaUBKTNV-1" vertex="1">
          <mxGeometry x="185" y="840" width="160" height="140" as="geometry" />
        </mxCell>
        <mxCell id="xxB4TzcVYkeVjoPv3Ypi-1" value="- reviews : List&amp;lt;Review&amp;gt;&lt;br&gt;&lt;div&gt;- position : int&lt;/div&gt;" style="text;strokeColor=none;fillColor=none;align=left;verticalAlign=top;spacingLeft=4;spacingRight=4;overflow=hidden;rotatable=0;points=[[0,0.5],[1,0.5]];portConstraint=eastwest;whiteSpace=wrap;html=1;" parent="xxB4TzcVYkeVjoPv3Ypi-0" vertex="1">
          <mxGeometry y="26" width="160" height="34" as="geometry" />
        </mxCell>
        <mxCell id="xxB4TzcVYkeVjoPv3Ypi-2" value="" style="line;strokeWidth=1;fillColor=none;align=left;verticalAlign=middle;spacingTop=-1;spacingLeft=3;spacingRight=3;rotatable=0;labelPosition=right;points=[];portConstraint=eastwest;strokeColor=inherit;" parent="xxB4TzcVYkeVjoPv3Ypi-0" vertex="1">
          <mxGeometry y="60" width="160" height="8" as="geometry" />
        </mxCell>
        <mxCell id="xxB4TzcVYkeVjoPv3Ypi-3" value="+ Reviewlist(reviews :List&amp;lt;Review&amp;gt;)&lt;div&gt;+ hasNext() : boolean&lt;/div&gt;&lt;div&gt;+ next() : Review&lt;/div&gt;" style="text;strokeColor=none;fillColor=none;align=left;verticalAlign=top;spacingLeft=4;spacingRight=4;overflow=hidden;rotatable=0;points=[[0,0.5],[1,0.5]];portConstraint=eastwest;whiteSpace=wrap;html=1;" parent="xxB4TzcVYkeVjoPv3Ypi-0" vertex="1">
          <mxGeometry y="68" width="160" height="72" as="geometry" />
        </mxCell>
        <mxCell id="xxB4TzcVYkeVjoPv3Ypi-4" style="edgeStyle=orthogonalEdgeStyle;rounded=0;orthogonalLoop=1;jettySize=auto;html=1;endArrow=block;endFill=0;entryX=0.452;entryY=0.993;entryDx=0;entryDy=0;entryPerimeter=0;" parent="WIyWlLk6GJQsqaUBKTNV-1" source="emebHx1RxWuF_3HbTOJc-35" target="xxB4TzcVYkeVjoPv3Ypi-3" edge="1">
          <mxGeometry relative="1" as="geometry">
            <mxPoint x="257" y="1000" as="targetPoint" />
            <Array as="points" />
          </mxGeometry>
        </mxCell>
        <mxCell id="xxB4TzcVYkeVjoPv3Ypi-5" style="edgeStyle=orthogonalEdgeStyle;rounded=0;orthogonalLoop=1;jettySize=auto;html=1;entryX=1;entryY=0.5;entryDx=0;entryDy=0;endArrow=open;endFill=0;dashed=1;" parent="WIyWlLk6GJQsqaUBKTNV-1" source="xxB4TzcVYkeVjoPv3Ypi-3" target="k7wSuXpc-OqHTCkI8A_d-80" edge="1">
          <mxGeometry relative="1" as="geometry">
            <Array as="points">
              <mxPoint x="160" y="944" />
              <mxPoint x="160" y="946" />
              <mxPoint x="140" y="946" />
            </Array>
          </mxGeometry>
        </mxCell>
      </root>
    </mxGraphModel>
  </diagram>
</mxfile>
